/* XPM */
static char *_44455b360d04e0fdf14ef26209807c8UEXyYFoyBzPThzn8[] = {
/* columns rows colors chars-per-pixel */
"64 64 174 2 ",
"   c #585A50",
".  c #5F6158",
"X  c #636256",
"o  c #6C6656",
"O  c #6D6857",
"+  c #656459",
"@  c #67685D",
"#  c #69695E",
"$  c #766A55",
"%  c #796C57",
"&  c #716C5E",
"*  c #7A6D58",
"=  c #7E725D",
"-  c #6C6C60",
";  c #6D7065",
":  c #7B7564",
">  c #7C7867",
",  c #76766B",
"<  c #79776A",
"1  c #7D7B6A",
"2  c #7E7E71",
"3  c #80745F",
"4  c #827D6D",
"5  c #897E69",
"6  c #817F71",
"7  c #84806F",
"8  c #8C816C",
"9  c #90846F",
"0  c #838273",
"q  c #898575",
"w  c #8B8877",
"e  c #8A8778",
"r  c #8D8A7A",
"t  c #918671",
"y  c #938A76",
"u  c #928E7D",
"i  c #94907F",
"p  c #99917E",
"a  c #928F80",
"s  c #949181",
"d  c #9B9583",
"f  c #9E9986",
"g  c #9E9989",
"h  c #A09783",
"j  c #A19A87",
"k  c #A39D8A",
"l  c #A89F8C",
"z  c #A7A18D",
"x  c #A9A28E",
"c  c #A7A190",
"v  c #ACA591",
"b  c #AFA894",
"n  c #B0A794",
"m  c #B0A792",
"M  c #B1A894",
"N  c #B0A895",
"B  c #B1A995",
"V  c #B0A894",
"C  c #B0A996",
"Z  c #B2AA96",
"A  c #B3AA96",
"S  c #B2AA97",
"D  c #B3AA97",
"F  c #B3AB97",
"G  c #B4AB97",
"H  c #B6AC97",
"J  c #B4AA95",
"K  c #B2AA99",
"L  c #B2AC98",
"P  c #B7AD98",
"I  c #B7AE99",
"U  c #B6AE9A",
"Y  c #B7AE9A",
"T  c #B7AF9A",
"R  c #B7AF9B",
"E  c #B7AE99",
"W  c #B8AF9A",
"Q  c #B8AF9B",
"!  c #B8AF9A",
"~  c #B8B09A",
"^  c #B9B09A",
"/  c #B8B09B",
"(  c #B9B09B",
")  c #BAB09B",
"_  c #B8B09C",
"`  c #B9B09C",
"'  c #B9B19C",
"]  c #B8B09D",
"[  c #B9B09D",
"{  c #B9B19D",
"}  c #BAB09C",
"|  c #BBB09C",
" . c #BAB19C",
".. c #BAB09D",
"X. c #BBB09D",
"o. c #BAB19D",
"O. c #BBB19D",
"+. c #BAB29D",
"@. c #BBB29D",
"#. c #B9B09E",
"$. c #B9B09F",
"%. c #B9B19F",
"&. c #BAB09E",
"*. c #BAB19E",
"=. c #BBB19E",
"-. c #BAB19F",
";. c #BAB29E",
":. c #BBB29E",
">. c #BBB39E",
",. c #BAB29F",
"<. c #BBB29F",
"1. c #BBB39F",
"2. c #BCB19D",
"3. c #BDB19D",
"4. c #BCB29D",
"5. c #BDB29D",
"6. c #BCB39D",
"7. c #BCB19E",
"8. c #BCB19F",
"9. c #BCB29E",
"0. c #BCB39E",
"q. c #BCB29F",
"w. c #BDB29F",
"e. c #BCB39F",
"r. c #BDB39F",
"t. c #BDB49F",
"y. c #BAB19C",
"u. c #BCB2A0",
"i. c #BCB3A0",
"p. c #BDB3A0",
"a. c #BCB4A0",
"s. c #BDB4A0",
"d. c #BDB5A0",
"f. c #BCB4A1",
"g. c #BEB4A0",
"h. c #BEB5A0",
"j. c #BFB5A0",
"k. c #BEB4A1",
"l. c #BEB5A1",
"z. c #BFB5A1",
"x. c #BFB6A1",
"c. c #BEB5A2",
"v. c #BFB5A2",
"b. c #BEB5A3",
"n. c #BFB6A2",
"m. c #BFB7A2",
"M. c #BFB6A3",
"N. c #BEB5A4",
"B. c #BFB6A4",
"V. c #BEB5A1",
"C. c #C0B6A1",
"Z. c #C0B7A1",
"A. c #C1B7A1",
"S. c #C0B6A2",
"D. c #C0B7A2",
"F. c #C1B7A2",
"G. c #C0B6A3",
"H. c #C1B7A3",
"J. c #C1B6A4",
"K. c #C0B7A4",
"L. c #C1B7A4",
"P. c #C1B7A5",
"I. c #C1B7A6",
"U. c #C1B7A2",
"Y. c #C1B8A4",
"T. c #C1B8A5",
"R. c #C2B8A5",
"E. c #C2B9A5",
"W. c #C3B9A6",
"Q. c #C3BAA6",
"!. c #C4BAA6",
"~. c #C4BBA6",
"^. c #C2B9A4",
"/. c #C5BCA8",
/* pixels */
"F.F.>.>.>.T R r.F.T.B.B.T.T.H.m.B.s.s.f.s.F.B.T.H.s.m.m.s.s.p.>.>.u.f.u.s.m.m.H.B.m.m.m.F.H.B.B.T.B.H.H.B.m.m.m.m.B.N.m.m.N.B.B.",
">.v g d f f d g k k z z k k z k k g g g g g g z z z k k g g g g g g g g k c k z k z z g g k k k z k g z z c z k z c k k z c L B.",
"b s.s.s.s.s.f.f.B.B.T.T.T.B.B.s.f.f.s.s.s.s.s.B.B.B.s.s.f.f.d.f.u.u.s.s.B.N.B.B.N.B.s.s.s.B.f.N.N.N.B.B.B.B.~.~.m.B.N.N.B.B./.L ",
"v s d d s d s d d d g g g g g d g d d s d d d d g d d d d f s s s d s d d d d d d d d d d d d d d d d d d g g g d d s d g g g C ",
"Q j x x - 6 2 6 0 0 0 0 0 0 0 0 0 0 0 0 0 0 6 0 0 0 6 0 2 0 0 , , 2 6 2 0 0 2 2 0 0 6 0 0 0 0 0 0 0 0 0 0 0 0 0 0 6 0 - v b k f.",
">.c Q T r T / / R Q >.R u.R ] ] / / R R / / ] / ] U / / ] U ] x b Z ] ( U ] ] f.( / ] / T T T ( U U / / ] f./ / R >.Q s T ] v m.",
"R x T T s Q T ( R Q >.>.>.] ] ] / / ( / / / / ( U / / / ] / / x v Z / ( / / ] ] ( / ( Q ] / ( ( ] ] / / ] ] / ] Q >.Q s T Q v >.",
"R c Q T a >.Q ( R >.p.s.>./ / ] ( ( / / / / ( / ] ] / / / / / x b L / / / / / ] ( / ( T T >.( ( ] ] / / ] / / / T T Q a T T x >.",
"Q x Q T u ( ( ( >.>.F.F.>.>.Q Q ( ( ( ( ( / ( ( ( ( Q T T >.T x v K ( ( / ( / ( ( / / / Q Q Q ( ( / ( / / / ( / Q >./ s T Q x >.",
"( z Q b = T ( ( >.s.F.F.Q Q >.Q ( ( / ( ( / T Q / ( Q >.T Q Q z v J >.( ( Q / / ( / / ( >.Q ( ( / / ] / ( ( ( ( Q Q ( 9 h T c T ",
"/ z T m * Q ( ( p.F.F.s.>.Q T Q ( ( Q Q ( ( ( T / / ( / Q ( Q x v K ( / T T T >.Q T ( ( Q Q Q >.( ( / / ( / / ( Q / / 5 p Q c p.",
"T x / m $ Q ( ( F.F.F.s.s.r.>.Q ( ( | Q ( ] ( >./ / / ] / ( T z v M / ( >.T T ( Q >.( ( >.Q Q Q R >./ / / ( / / ( ( / 5 h Q c F.",
"( x Q m 3 Q Q | s.F.F.F.F.F.F.Q Q r.Q r.R R Q >.>.Q >.T ( ( T l m J / T ( ( / ( ( ( ( / ( ( >.T R Q Q Q / / / / / ( ( 8 h ( v F.",
">.c Q m * Q Q | F.F.F.F.F.F.F.>.Q r.Q Q Q 8.p.r.R R Q Q Q Q Q x v J ( T / / / / ( ( ( ( Q >./ ( ] >.R >.( / / ( / ( T 8 p | v F.",
"H.v ( M O Q Q Q F.F.F.F.F.F.F.p.Q Q >.Q Q p.p.p.>.T >.T >.Q >.k v M >.T / / / / ( >.T ( T / / ( R Q >.R ( ( ( ( / / / : p ( m H.",
"F.v ( T r Q Q >.F.F.J.F.J.F.F.r.p.Q Q Q Q u.u.Q p.>.Q Q Q Q Q l m H / / / / / / ( / Q Q Q ( / ( >.u.Q Q ( ( ( / / / ] u H >.M H.",
"H.b Q T i / ( >.H.H.H.H.H.H.Z.r.| ( >.Q Q >.Q Q >.Q Q Q Q ( Q l v G / / ( ( / / ( ( / / ( ( Q Q T >.Q Q Q >.R R Q Q ( s T >.b F.",
"H.v Q Q s >.T >.s.H.H.H.H.Z.H.t.>.( Q ( Q ( >.Q T Q >.T ( ( T z b M / / / ( ( ( ( / ( / ( ( Q >.R Q Q >.Q R >.T T >.Q s T >.b F.",
"s.v / Q s Q T >.H.H.T.H.H.Z.H.Z.j.s.t.r.r.Q Q Q >.T / ( / / / x b M / / / / ( / / / ( / ( ( ( ( >.Q Q Q Q >.>.Q T ( ( s T u.b F.",
"F.v ( T s Q T >.H.H.T.H.H.H.Z.H.F.F.H.>.Q Q r.Q / / / / / / / x b G / / / / ( ( / ( ( / / / Q Q Q Q T >.R R >.Q Q ( / s T Q b F.",
"F.v ( T s / / ( H.H.H.H.H.Z.H.Z.F.C.C.C.Q Q Q >.( ( / ( ( ( Q x b K Q Q ( >.T ( ( / / / Q Q Q Q Q Q Q Q >.T >.R ( Q >.s T Q b J.",
"t.v ( T s / T >.t.H.H.H.Z.H.Z.H.F.C.C.Q >.Q Q Q ( T ( ( ( Q Q x b n ( ( / / Q Q / / ( ] r.Q ( >.( ( R >.R Q >.Q ( Q Q a T Q b F.",
"t.x T Q a >.T ( t.H.j.H.H.Z.H.Z.F.p.r.Q Q Q Q r.>.Q ( ( ( ( Q z v M ( ( / / / ( ( ( ( >.Q Q Q >.( Q >.Q >.Q >.R / / >.a T Q v p.",
"t.x T T s ( / ( ( | r.j.A.A.H.t.p.Q Q r.r.>.Q Q / ( / ( ( ( Q z v M >.>./ / / ( ( ( Q Q r.Q Q Q ( >.u.R R R R Q ( / Q a T Q v p.",
">.x ( Q s / / ( / / ( t.H.H.Z.r.8.>.r.>.Q r.Q Q >.Q >.Q ( ( ( z m M i p l ( ( ( Q Q Q Q Q r.Q Q s.t.s.t.>./ / / / / ( s T Q v >.",
">.k T T s / / / ( ( >.s.F.s.t.>.u.p.p.>.>.p.F.p.Q Q Q Q ( ( / z b M o X y ( / >.r.Q r.Q | Q >.>.H.H.m.s.>./ / ( ( / >.s T T c >.",
"( x T T s ( / / ( ( T t.t.>.( +.>.p.Q Q >.p.J.s.>.Q ( ( ( ( ( z b M T j T / ( ( >.Q ( ( ( >.Q s.H.H.H.H.u.>.( >.>.>.T s Q Q v >.",
"( v T T i ( H / ( T H Q / >.( +.Q >.>.Q >.s.s.>.T T >./ ( ( Q z v J >.T / / / ( ( | ( ( ( r.p.F.H.H.H.H.s.s.t.t.T Q T s Q Q v Q ",
"( c T T a ( ( / ( H Z Z ( ( / ] Q >.p.Q r.s.R Q Q Q Q Q Q Q ( l v M >.r.( T Q Q >.Q Q ( Q Q p.p.t.H.H.H.H.j.H.H.Q Q Q s T Q c >.",
"( c ( ( s ( ( ( / T M M ( ( ( +.>.>.>.Q s.s.>.T ( ( T T H H H k x H h p T T J Q H Q Q ( R >.u.p.r.t.H.t.H.H.H.Z.p.>.Q d T Q c r.",
">.x Q M 4 Q Q ( / H m H H H / ( T >.Q >.s.s.f.>.( >.T ( ( / / k x H = O : : > 4 1 Q Q >.Q >.Q u.( >.H.t.H.H.F.p.u.Q r.y l Q m F.",
"( v Q m % P Q ( T J M M H E / / T >.>.Q H.>.s.>./ ] Q Q ( / H f x J x p Q Q Q Q ( Q Q Q Q Q r.>.>.m.t.t.s.F.F.s.r.>.Q 5 h Q b F.",
"t.x ( m * H H T T H M M T H / / >.u.>.>.>.Q >.( / / ( ( Q H J f z m P P | ( ( ( Q ( ( Q Q ( >.8.8.s.s.s.Z.Z.H.t.j.+.+.8 h s.b H.",
"s.v Q m = ( ( / T H M H T / ( ] >.s.p.>.>.Q >./ / / / ( ( J J f l v P Q H P ( ( Q Q >.Q Q >.Q >.u.s.s.s.H.Z.Z.H.H.t.s.t h s.b H.",
"F.v E b $ / / / T H M ( / / / >.R u.s.>.Q R >./ ( / ( Q ( P J j l x P P ( E ( r.( >.( / Q ( >.Q >.>.s.s.Z.H.H.H.m.m.H.8 f t.b H.",
"H.v ( b $ H / ( T H J ( / ( >.( >.s.s.s.p.p.+.( >./ ( ( ( P J f l z J H / / ( ( T ( ( >.Q ( Q >.u.s.T.s.H.H.H.s.t.H.t.5 h t.b H.",
"H.v / T 0 ( / / T H m ( ( ( ( ( ] s.s.H.r.t.j.t.s.>.Q H / E H k z x H m H ~ ( ( H ( ( ( ( Q >.j.>.>.>.p.F.s.m.m.m.H.m.r m t.m H.",
"H.x T H r / / / ( H m H ~ ( ( ( R f.s.m.t.j.H.F.F.s.( ( ( ( H k x x H H H ( ( ( ( ( ( ( ( >.>.t.Q >.>.F.p.s.t.H.m.m.+.f t.Z.m H.",
"+.x T H i H H ( / H H ( ( ( ( ~ T >.t.s.Z.t.H.Z.j.H.t.( ( ( H k z v H m H / ( ( ( ( P Q ( >.| ( >.>.>.s.u.s.t.s.m.s.( s +.+.b H.",
"( k m m r H J / / H J ( ( ( ~ H Q >.>.t.t.H.Z.H.H.H.H.H.t./ H h x v m b / / E E Q P J Q Q ( r.( Q Q s.s.s.>.t.>.t.( 6.s ( t.b H.",
"( k H m r J J ( Q P J P | P P H Q ( r.t.s.F.F.F.H.Z.H.^.t.6.H k l m m J E ~ ( H H J m H ( ( 6.r.( t.m.m.+.m.+./ / / / s T >.b F.",
"+.x T H u m J ~ Q P J Q ~ ~ H J T >.Q >.F.F.s.s.Z.H.t.m.6.E m f l x H m J H P ( J m H J J ( r.( ( t.m.+.+.H.( / / / / s T s.b F.",
"t.z ] T u J J ~ P J J H P ~ H J H >.>.r.s.s.s.s.H.m.^.t.+.( J f l l m H E / ( ( P J J J H ~ ( ( ( t.t.( m.t.( ( ( / ( s R s.b F.",
"( z / H y J J ~ Q J J P P P H J J ( r.>.t.s.s.m.^.t.H.^.t.E J f l m m H ( / / ( ~ J P J H Z ( ( / / ( ( H.+./ ( ( / / s >.s.b F.",
">.x / H r m M P Q m J P ( T H H / ( +.+.+.H.+.s.m.m.m.m.6.E J h j x J H ^ ^ ( P ~ H J J J P H P / ( ( ( s.+.( ( / / ( s T u.b B.",
"/ z E H r H m P ( >.( t.t.t.+.t.+.m.m.~.T.~.T.~.~.~./.^.6.H J p l x J H j.j.t.t.5.| | ( 6.| ( ( ( t.t.t.s.t.t.t.( ( H r T R b H.",
">.j J m r m H ( , 4 6 0 q 0 0 0 0 r r r r r r r u u i 0 t.H J z l m m ^ 4 r w r w w w 0 7 7 0 q w w r r w e w 1 t.( H u T Q b H.",
">.k J m r J J ( w l l k x x v z z x b Z b Z b M Z Z Z i ^.E H f l v J ) y c x x x x x l l k z z z v x v x v x u t.~ M w T ( v m.",
">.k M M w J J | q f f f h f g f f j z z z z z z z c c r ^.6.~ z x m J 6.q k k k k z h f f p f k h k z l z f z q 6.H m w H ~ v t.",
"R k T J r J m r.w j z z x x c v z v v v b b b b b L L i t.6.E z x m H 6.w x x x z v x z z z x v v v x x x x z w 6.J J y E ~ b m.",
"T l M m 5 J J ^ 0 f f f d f f g f f d z z z z c z z j w t.6.J z m J / +.q f f z k k k f f p f k k f k k z f j 0 6.J J t m / b t.",
"T h m x % m J ^ q h l k z z z x z x z v v v v b v c v i 6.~ H z m m E t.u v x z x x x x z z x x x x x x x x z r 6.J m 8 p 6.b t.",
"Q f m x % H H ^ 7 p d p d f p f f f f k k k k z k j k w >.~ ~ z x J E t.q z f z k k k f f f k z f k k z f f f 0 6.J E 8 p 6.b t.",
"T d J z * m m ^ 0 f z z z z z x z z v x x x x x c v v u >.~ H z m b E t.u z x v z z x x z x x x x x v x x x z r 6.~ E 8 h 6.J t.",
"H f m x % m J ^ 4 i p p d p d p p f k k f k k k k j k w t.~ J p x J 6.6.q z z f f f f f f k k k k f z f j f j q 6.~ ( 8 p 6.b t.",
"T d m x % v J ^ q f k z z z z z k z z x x x x x v v v u t.~ J z x J 6.6.u x z v v x x x z x x x x x x x v v v u A.~ 6.8 p 6.b H.",
"( h m v * m J ^ 2 p p f p f p d f f k k k h z k z h z w 6.H J h x J E Z.w z k k x z f f k k k h k h h k z k f w 5.6.~ 7 k ( x H.",
"( k J v e m J ^ 2 q 0 w w w w e w r r i i i i i i i i 7 6.H J f x b 6.t.0 i i i s s u i u u r i u i i i i i i q A.~ ~ i P ~ m H.",
"~ k J b e M J H / 6.E ( Q Q >.>.| t.s.m.H.t.H.H.^.^.6.6.^ P J f z J E ~ t.H.^.~.~.t.t.t.t.Z.t.Z.t.t.t.Z.t.Z.t.t.^ P ~ i E E x Z.",
"J k H m w M m J b J b J H J J J J ~ ( ( / ( ( t.6.6.6.^ m J J p k x J J J ( ( H.t.( ( / ( ( 6.( ( 6.6.6.6.6./ ~ P J ^ i E / x t.",
"P k m m w m J J M m M J J P H H H ~ P ( / / / ( E ~ E J J J x p z x m J J P ( t.t.6.6.+.( 6.6.t.t.+.6.+.t.6.6./ 6.H E i E E z Z.",
"~ k J m 0 x x x x x x x v m v v v b m m b J J J J b m m x x z y p k x z x m J H / E Z L Z E E ~ H Z Z Z ~ E J b m m m r E E x H.",
"~ k J m @ 1 1 1 1 1 1 4 5 4 4 4 1 7 7 7 4 7 7 7 7 7 7 7 1 4 > > > 1 > 1 7 q 7 q w q 8 w 0 w w q w q q q w w 7 7 7 7 7 # E ( x H.",
"H k m m   + X X X X X + + X X X X + @ @ @ @ # # # @ # @ + + X X X X X + @ # # # - # ; - # # ; # # # # # - - - @ @ O @ . / ( x Z."
};
