/* XPM */
static char *b6b69a2e720f43d99df60572a3af3b9dcjMs00aThaQuV62H[] = {
/* columns rows colors chars-per-pixel */
"64 64 237 2 ",
"   c #060A06",
".  c #0A0906",
"X  c #0C0C0A",
"o  c #050707",
"O  c #130F0D",
"+  c #0E120C",
"@  c #0C1107",
"#  c #12120E",
"$  c #151C0C",
"%  c #1A180F",
"&  c #0E1311",
"*  c #151512",
"=  c #191714",
"-  c #161A14",
";  c #1B1B15",
":  c #161D19",
">  c #1D1E19",
",  c #230D0D",
"<  c #270B0B",
"1  c #221311",
"2  c #221C16",
"3  c #291B18",
"4  c #3B1917",
"5  c #26110F",
"6  c #19240A",
"7  c #1B2314",
"8  c #1D221C",
"9  c #1A251A",
"0  c #22231D",
"q  c #2C251D",
"w  c #222B1C",
"e  c #2E291E",
"r  c #332A1E",
"t  c #283218",
"y  c #333F17",
"u  c #1D1F22",
"i  c #1E2621",
"p  c #1E2A23",
"a  c #252621",
"s  c #292622",
"d  c #242B24",
"f  c #2B2B24",
"g  c #242E28",
"h  c #2D2E29",
"j  c #332C24",
"k  c #302F2B",
"l  c #392B23",
"z  c #263224",
"x  c #2D3127",
"c  c #26322B",
"v  c #2B332D",
"b  c #2A382F",
"n  c #323127",
"m  c #3B3125",
"M  c #33332C",
"N  c #3B352B",
"B  c #39392F",
"V  c #31392A",
"C  c #2C3B32",
"Z  c #2B3631",
"A  c #353531",
"S  c #333C34",
"D  c #3B3B33",
"F  c #3D3D39",
"G  c #373934",
"H  c #423D33",
"J  c #403E3A",
"K  c #44382B",
"L  c #394628",
"P  c #35433A",
"I  c #3A443D",
"U  c #36493E",
"Y  c #3A493D",
"T  c #364036",
"R  c #2E4137",
"E  c #414136",
"W  c #44433B",
"Q  c #49453B",
"!  c #4A4A3E",
"~  c #4A4638",
"^  c #534535",
"/  c #57493B",
"(  c #44542C",
")  c #5A6E3A",
"_  c #3B4C42",
"`  c #3A4841",
"'  c #3D5145",
"]  c #464541",
"[  c #434C44",
"{  c #4C4C43",
"}  c #444D49",
"|  c #4C4B47",
" . c #504E46",
".. c #435147",
"X. c #44544B",
"o. c #4A534C",
"O. c #45594D",
"+. c #4C544A",
"@. c #525146",
"#. c #54544B",
"$. c #5A594E",
"%. c #575749",
"&. c #4E5651",
"*. c #4B5B52",
"=. c #475B50",
"-. c #545550",
";. c #535A53",
":. c #5C5C53",
">. c #5D5E59",
",. c #565855",
"<. c #615E52",
"1. c #605F5A",
"2. c #605E4D",
"3. c #4D6256",
"4. c #4E6458",
"5. c #5F6056",
"6. c #54645A",
"7. c #5D655D",
"8. c #58695F",
"9. c #526459",
"0. c #596D48",
"q. c #616156",
"w. c #64645B",
"e. c #6A6A5E",
"r. c #67675B",
"t. c #6D7757",
"y. c #5C6B61",
"u. c #576D60",
"i. c #5C7265",
"p. c #5F7669",
"a. c #656662",
"s. c #696762",
"d. c #6C6C63",
"f. c #666B65",
"g. c #726F6B",
"h. c #706E65",
"j. c #63746A",
"k. c #6B746C",
"l. c #667468",
"z. c #727165",
"x. c #74746B",
"c. c #7A796D",
"v. c #797667",
"b. c #6C7C72",
"n. c #677B71",
"m. c #757671",
"M. c #7C7C73",
"N. c #7D7C78",
"B. c #767973",
"V. c #817E71",
"C. c #6D8275",
"Z. c #73837A",
"A. c #7B847C",
"S. c #77867B",
"D. c #7B8969",
"F. c #828176",
"G. c #84847A",
"H. c #89897E",
"J. c #898776",
"K. c #96917E",
"L. c #8A9A7D",
"P. c #7A8C82",
"I. c #7D9286",
"U. c #898782",
"Y. c #8D8C83",
"T. c #888B86",
"R. c #918E89",
"E. c #85948A",
"W. c #8A968C",
"Q. c #85978B",
"!. c #929185",
"~. c #94948B",
"^. c #9B9A8D",
"/. c #979985",
"(. c #8B9C91",
"). c #9A9693",
"_. c #9C9C92",
"`. c #979B96",
"'. c #A39F9B",
"]. c #A09E95",
"[. c #A19E8C",
"{. c #98A887",
"}. c #8DA297",
"|. c #96A59B",
" X c #A3A295",
".X c #A4A39B",
"XX c #AAA99C",
"oX c #AAA797",
"OX c #B1AE9C",
"+X c #ACAD95",
"@X c #9BAAA2",
"#X c #9CB2A6",
"$X c #ABABA3",
"%X c #A7ABA7",
"&X c #B1ADA6",
"*X c #A6B3AB",
"=X c #B3B3AA",
"-X c #BCBBAC",
";X c #B7B5A7",
":X c #ACBBB2",
">X c #AEB8B3",
",X c #BCBCB2",
"<X c #B6BAB6",
"1X c #C2BEB9",
"2X c #C0BCA9",
"3X c #B6C3BC",
"4X c #BCC2BC",
"5X c #B1C7AD",
"6X c #C3C3BB",
"7X c #C9C9BC",
"8X c #C4C3B5",
"9X c #D0CCB7",
"0X c #BDC9C3",
"qX c #CBCBC3",
"wX c #CFCFC9",
"eX c #C4C9C4",
"rX c #D0CFC8",
"tX c #C7D1CA",
"yX c #D4D3CC",
"uX c #D7D6CA",
"iX c #CCD9D2",
"pX c #D6D6D1",
"aX c #DBDBD2",
"sX c #DADAD7",
"dX c #D9E2D9",
"fX c #E4E4DB",
"gX c #E8E7D7",
"hX c #EBEBE2",
"jX c #E3EBE7",
"kX c #E6F1ED",
"lX c #F3F2E8",
"zX c #EDF4F1",
"xX c #F3F6F3",
"cX c #F9F9F6",
"vX c #FCFDFC",
"bX c #F4FAF8",
"nX c #DFE7DC",
/* pixels */
"v ` &.i.C.(.}.@X*X>X<X<X>X*X>X*X#X@X}.@X}.C.l.b.j.y.j.j.y.y.y.y.6.6.8.u.*.6.9.*.*.O.;.*.*.=.' ' ' R U ' ` R C b b b C b g g p p ",
"` 7.b.E.@X:X0X0XsXbXvXvXvXvXvXvXvXvXbXiX8.P I I I P S S C P S C C C v Z v c v g g p 9 *.C.i.u.3.3.' U O.' ' _ ' ` ` P C b C b g ",
"} &.>.k.A.T.`.0X*XvXvXvXvXvXvXvXvXvXvX(.9.P.I.I.Z.P.b.Z.n.C.n.i.j.u.i.y.8.3.3.*.O.X.[ c n.i.u.3.=.U _ O.` ` ' X.` R C c b c b i ",
"&.} &.&.o.,.f.eX@XzXxXzXxXxXxXxXxXzXkX:X@X@X@X|.(.Q.I.Q.I.E.I.Z.S.Z.b.b.b.j.y.3.4.8.4.*.i.u.4.=.3.' 3.O.O.=.X.X.b b c p i i C i ",
"y.y.,.y.k.Z.T.0X(.0XtXiXiX0X0X0X3X3X:X:X:X:X:X*X#X|.(.}.@XI.Q.b.C.C.b.b.b.j.p.p.i.4.9.9.O.*.' _ U P U _ U ' P ' c z i i 8 i Z 9 ",
"` } o.o.&.,.,.7.n.`.@X%X*X%X@X}.`.W.E.I.W.W.E.A.n.P.S.Z.p.C.i.y.*.6.3.*.*.*.O.X.} _ _ ` P P S C c c v c b C Z Z Z d p d i i g p ",
"E.f.>.;.>.w.A.`.tXy.&.&.;.&.o.} } } [ ` [ [ I I I P P T R S C Z v c c g g g c d d p p p a 8 8 > 7 : : : 9 8 v o.c d w a 8 8 9 c ",
"t.5XsXtXsXjXjXjX,.k.B.T.B.N.k.B.x.k.x.f.a.7.,.-.o.} | } X.} I k ` F G S S G S G v h h h g h h f d a d a 8 0 g S *.I T T T P w 7 ",
"w |.bXbXvXbXpXa.N.N.).%X_.'.).).R.U.).M.g.N.s.s.<.-.-.W ] ] | k ] J J J J D D J j j k k f k k s h j s s > 2 ; d v [ I Y Y T 7 $ ",
": ,.xXvXvXsXk.m.'.&X,X1XwXsXyXqX8X1X;X).R.U.N.U.N.d.s.s.,.:.>.J d.| -.1.:.,.#.J J J J F G D A k h f k a 0 8 = = 8 d X.Y T R i   ",
": >.xXvXsXa.P.B.<X<XyXpXyXpXsXsXwX6X,X.X$X'.].R.V.m.h.d.s.d.d.| M.:.h.V.x.x.r.#.@.@.{ J ! ! D Q J D W f f s 0 * - d d o.U R 8 o ",
"A y.xXvX>XW.).1XfXcXvXcXcXcXxXxXhXhXaXqX=X7X8X2X'.).R.Y.R.U.G.-.~.M.c.M.M.d.x.x.<.w.q.#.$.q.$.| { {  .B B x f 0 > * 0 O._ P z   ",
"t.D.cXvX4X>XwXhXxXvXvXcXvXcXxXcXhXhXaXrX6X,X6X=X.X_.Y.R.V.Y.U.:.R.M.h.c.h.g.d.z.>.$.@.:.$.$.#.$.{ { { E B M f f 0 ; w 9._ _ w 6 ",
"{.{.vXvX3X>XjXxXxXcXcXvXcXvXvXlXfXfXaXuX7X1X6XXX].).R.^.H.U.x.$.G.M.c.x.e.x.h.f.e.:.@.{ @.@.! Q Q ! B D B B B f q 0 d j.' _ z 6 ",
") L.vXvX3X>XfXcXcXcXxXvXcXcXxXlXzXfXaXfXuXaX1X&X$X_.~.~.U.R.V.:.~.c.d.m.M.M.d.x.f.q.,.| @.+.@.| #.! E E G B F M f a d i.4.' w 6 ",
"( /.vXvX4X%X&X1XeX1X<XsXwX<X&X$X&XR.&X`._.U.m.B.m.x.a.w.,.,.1.] w.| ] ] | W J ] H D J k f M G k f h q 0 s s > h f * 9 u.4.' w 7 ",
"` y.bXvX<X|.>X%X&X<XyXyX1X'.&X'.).'.'.).R.U.N.g.s.V.h.s.>.,.-.J ,.] ] ] J F A k B F J F h A k k a a a a a 2 a k = = > *.O.U g . ",
"v ,.zXbX<X(.`._.$X1XsX1X$X'.'.).).&X'.R.U.U.N.g.s.g.g.,.#.-. .J 1.J ] J J A F A A A J F s s h s a 2 a > 0 > > > = O a X.' U p X ",
"` %XzXkX>X%XqXyXpXrXsXpXqXwXyXyXqX1X1X1X$X'.).).R.R.R.x.g.s.s.| m.-.,.:.#.| |  .W ] J J ] F M B A k k h f f s a 3 > g X.U U 9 @ ",
"D.dXkXdX<X|.qXpXpXyXpXwXqXqXpXwXwXqXqX&X'.&X).).U.~.H.m.g.N.m. .M.1.:.:.#.#.-.,.| | ] | J F k A M k k k s s a a 0 > a ..R P z 7 ",
") +X0Xk.b.E.'.).$XU.U.R.).`.T.).).R.U.N.g.s.s.s.>.>.,.,.-.-.| G 1.| F A F G G A k M h k A a a a a > s u 2 > = = - # 8 p d b z w ",
") {.>XZ.W.@X,XqXqX6X,X,X6X6X<X=XeX$X$X$X).N.V.U.G.G.M.x.x.c.d.[ g.1.1.-.#.#.| | ] | ] | F D G A D F k k k s a s 0 ; 8 9 7 ` z t ",
"V |.tX(.Q.`.6XaXaX1XV.U.V.G.U.B.G.m.$XXX].oX).R.~.G.G.F.G.Y.M.@.G.x.g.d.:.$.:.#.{ | W W f h f a a a a a A k h s 0 > 8 P v P 9 - ",
"8 |.jX`.E.W.8XaXsX<Xf.f.s.f.f.>.a.>.;XXX.X~.~.R.Y.F.G.H.!.G.G.@.G.x.e.:.$.@.#.| @.{ J F a > 0 0 > 2 > > G A j a 2 > 8 P 9 b c & ",
"- k.jXj.S.}.8XrXfX6Xc.M.B.U.B.x.B.m._._./.~._.J.Y.H.H.Y.J.A.v.{ V.d.e.q.:.#. . .| ! ! G f d 0 0 > 0 0 0 x A f f 0 > 8 v : v c & ",
"L &.%X} r.Q.-X7XuX7Xx.A.G.N.m.m.B.x.=X,X|.oX^.!.Y.!.Y.J.M.x.x.{ c.w.<.>.#.#.+.| ] ! F F j 0 s a 0 a a 8 M n f f 0 ; 9 & & g g + ",
") D.*XP.E.Q.=X8X9XqXf.g.h.a.:.q.d.w..X&X$X X~.!.!.F.G.G.G.z.d.[ M.f.:.#.:.| | ! W Q W Q 0 > > > > > > = f M f f q 8 8 8 9 v z 9 ",
"( t.eX@X}.I.$X8X6XrXd.g.x.s.m.e.g.d.Y. X_. X~.Y.~.M.F.G.c.z.x.! x.<.:.$.$.| | Q ! { W T 0 0 7 0 ; > = = d d f a 0 7 i P C P z 7 ",
"z w.tX0X#XZ.~.XX4XuXuXhXhXhXgXaXaXrXXX_._.~.M.x. XY.F.M.d.h.e.! z.>.$.:.#.@.| W { ! E { %.$.2.@. .E I G M f f a a ; i &.Z C c : ",
"* ;.|.9.}.Z._.oXoX2XOX7X9X;X1X;X X^.[. XY.F.!.G._.Y.F.z.z.d.e.W d.5.$.$.5.5.$.| @.B F W ~ ~ ~ ! D j M M f f h 0 > ; p } : Z Z + ",
"& 7.(.4.W.b.H.&X X X X.X[. X X~.^.!.J.!.M.M.F._.&X=XY.x.d.d.d.E r.$.$.q.d.H.t.#.] F B G G B B n f f f M f f A 0 0 ; i ` i c p & ",
": } Q.9.A.a.w.x.h.h.k.f.s.d.d.<.e.e.w.>.-.x.F._.wX`.%Xd.c.x.d.E w.$.:.w.qX).M.s.@.W 0 q 0 f 0 0 = ; ; > ; 7 > = = * i C : c p + ",
"L X.P.=.Z.G.gXlXlXlXlXlXlXlXlXgXgXgXgXgXXX$.M..XT.gXF.e.e.5.$.B ,.#.#.:.M.~.g.[ ! B ! q.$.2.<.$.<.2.@.%.%.%.@.! E B d v : g d 9 ",
"( 0.Z.=.Z.b.OX7XOX2X;X-X9X9X8XOX9X2X2X2XOXe.q.$.x. Xc.<.d.5.5.S +.| #. .] q.1.W ! n e.%.@./ ~ ~ H Q E B V n m n t 0 8 Z - g 9 7 ",
"( ) Q.p.A.h./.[.[.[.K.H.8XOXoX_.+XoXoX^. XXX$.M.<.$.e.F.5.@.5.! :.Q { ! ! D E @.f @.@.Q E W B j n n n N M n f q q ; 7 S : c z 6 ",
"w 0.|.*.P 8.H.G.!.^.K.F./.[.^.V.[.[.^.!.!.F.^.:.z.v.q.x.%.{ ! n J D F B W Q ! D B @.E T W B B f x f f x x q 0 0 0 % > : : c 9 6 ",
"# I |.O.3.7.d.c.F.G.c.F./.~.H.F.Y.~.!.Y.!.G.G.M.^.oXOX[.oXK.K./ V.t.V.v.z.r.r./ { G E B D M f f M h f f d 0 > 8 7 = i 9 9 P 8 . ",
"+ I 3X7.4.;.d.A.A.K.x.!.F.F.M.c.J.~.!.H.F.g.x.V.V.K.[.K.K.J.J.^ J.V.v.v.t.z.2.%.E B B N f n M f f d 0 0 a 0 0 > 2 = i 8 8 } 9   ",
"> ` :X6.*.o.w.d.m.J.G.!.H.J.A.F.G.J.Y.x.v.e.r.g.1.h.t.V.e.v.x.D e.@.@.<.%.<.%.~ B G M M M n f f a s 0 f f 8 2 0 > - 8 p 9 o.d   ",
"L Y %X*.O.o.q.x.M.V.f.F.F.H.c.G.c.F.G.w.g.$.$.w.%.#./ 2.{ #.#.n @.H @.! Q J Q N D B F M M x f x d a 0 a f 0 8 > > = d p 8 o.w - ",
"y ( }.o...O.<.s.x.e.e.c.V.G.v.z.A.F.c.5.e.>.$.$.#.{ @.>.q.{ @.n { ] D D W M A M G M G M M x x f d 0 f 0 0 0 0 0 > ; i p a X.w 6 ",
"t L P.6...o.$.w.h.f.r.x.M.c.e.d.F.v.d.5.:.d.@.$.@.{ :.! | @.! f Q J F k F M f M B x f M j f f f f d q 0 0 ; 0 0 > $ a p C _ w $ ",
"t L j.C.Y } #.>.w.r.G.x.c.z.w.d.c.x.q.q.5.w.:.{ #.[ { W E W ! f  .! H M D W D F J j f f f M f f f f f 0 7 0 0 ; ; % 8 P O.C w 6 ",
"@ S u.i.k.[ @.q.r.q.e.t.d.z.d.z.z.e.$.$.$.#.$.:.| ] ! { @.G ! z  .J F D F A N m M F M f d f f f x q f 8 2 ; ; % = % p [ C Z i + ",
"X d u.u.y.I %.w.q.e.e.v.d.q.q.w.e.$.#.#.@.{ { $.{ W E @.E E ! z F A W W G B H ^ j s M f f k f A x n f e q 2 2 q ; * 8 ` C b : o ",
"X p *.4.b.P @.:.q.$.r.r.q.r.q.w.w.#.@.#.| ! [ ! $.W E !  .%.@.e I G ] M H / / / ~ f f N 0 h h A k N j e r K m m r * 8 ' b b 9 o ",
"` ' *.6.b.I ! w.@.@.:.w.2.r.:.q.5.{ | @.! ! W W :.E E T $.W @.n B A D D ~ ^ H / / K f D f k M A j K m m m m r r l 0 8 ' c v p p ",
"q f m m b.S W { >.w.$.5.$.r.%.q.5.! { E W W W F ! @.M B E E ! e D M M G ^ ^ H ^ ^ K f j M k A F f K r q r e r r r q > P > > ; ; ",
"4 4 4 4 f.P { W W { { #.#.@.$.#.@.{ Q @.D E E W D  .W A Q ! W n F k H h N ^ ~ ^ ^ N f A f v A F r K m j e e r l r % 8 F < , , < ",
"l l l N y.S W ] ! W ! { { { $.E { Q { | T W D D D B @.T ! D E 0 D B H x f ~ ^ ~ m a h h a h M M q m j 0 q e 0 q 0 # > I , , 1 1 ",
"P P ] } 6.A D F W E ! { { E #.T W ! Q I E @.J D M M D E Q D B e D B j H f j B n f a h f 0 a f 0 0 0 0 > > ; 8 ; = - 8 P c v x z ",
"3 3 k k ..v M J Q G W { { E W Q T W H ! W %.F M M M M B Q B T 0 H H B j N N j 0 h v 0 0 a f f > 0 2 7 ; 0 8 ; ; = # 7 h 2 1 1 > ",
"Z I ] ] ` g M W W D G W B D T E D D B B E D j B B B f M M B T q D N M e f j k f s a 8 0 h d 0 > 8 > ; 0 0 > ; ; - * 8 v c g g f ",
"5 5 3 3 v d M f M E G B D B B H G B B B M x M G f M n f n M m 7 M M 0 a 0 8 0 0 a 2 0 0 0 0 0 0 0 0 > 0 > ; ; - * * : 2 1 1 , 1 ",
"3 3 q 3 v d a k M B G M M B M M G M M f j x M f f n f M f n n 0 n f q a 0 0 0 d 0 0 0 > 0 0 > 7 0 0 7 8 > ; ; - - # 9 > 1 , O 5 ",
"h h F ` C g u k n G x M n B M M M M n M M f M f f f f B f f x ; h 0 0 0 0 a 0 0 0 0 0 > ; ; ; ; = = > 2 > = % % * # : c c d p d ",
": $ g C Z d 0 h d A h h f M M M k M x f f d f a f 0 0 f f a s ; f 8 0 0 0 0 > 0 0 > ; = ; ; ; ; ; - ; > % = = # # # : z p 9 $ 9 ",
"&   d Z b i 0 0 f x f x f d M M k A k h a s a a 0 f 0 s h a f = f > 8 0 ; 0 7 ; > > > ; ; ; ; % 7 % ; = # - # # $ X : g p :   8 ",
": o i c z 8 = a > ; 0 0 a > 0 a 0 q k s 0 2 > 8 = ; 7 ; 0 a > ; 0 0 ; > > = = ; * * = * % # - = * # # - # # # + X # - p p & o : ",
"& o i g c 8 * a = ; 0 8 > 8 > f 0 0 k f 0 a > > = 8 > > > f = = 0 0 > = 8 - = 2 > = > = - % - ; = # * - + # X O X O - c p : o : ",
": @ 9 p p > a h h k h h M k A M h A k J F a a a f f d f f h h = f s a s f s a h f s h k s a a u 8 > ; 8 ; ; : * - * : p p 8 @ : ",
"$ + 8 p Z u = u u g a s a a a a h s f A h s s u a 0 2 u a a h = a s u u 2 a > > 2 u = u 2 u 2 > = = > > = = * * * X : C p 9 $ 9 ",
"- + i p g = O * = u = a = - ; ; = = = * = * = = = = - * * * O & = * = * & * & O * = - = - * * * = * * = * O X * X X 9 p p 9 + 7 ",
"+   9 i g : . . O X X O X O * O & * X O & X & X O - O O O & O O > . O O . X X X X X o X X . O . X . . . X . X . . o & b p & @ 8 "
};
