/* XPM */
static char *wall_31673551660[] = {
/* columns rows colors chars-per-pixel */
"64 64 104 2 ",
"   c #56522F",
".  c #554F34",
"X  c #575233",
"o  c #5A5535",
"O  c #5E5A36",
"+  c #57573D",
"@  c #5B5639",
"#  c #5E593B",
"$  c #615C37",
"%  c #625D3C",
"&  c #65613D",
"*  c #68633E",
"=  c #5C5741",
"-  c #5E5A42",
";  c #635E41",
":  c #666143",
">  c #6A6444",
",  c #6D6946",
"<  c #67644A",
"1  c #6B6549",
"2  c #6E694B",
"3  c #726C47",
"4  c #726D4C",
"5  c #786F4E",
"6  c #76714D",
"7  c #79744F",
"8  c #7B784F",
"9  c #6F6A51",
"0  c #736D52",
"q  c #726D5A",
"w  c #767152",
"e  c #7B7553",
"r  c #7E7955",
"t  c #777358",
"y  c #7C7659",
"u  c #7E795A",
"i  c #807754",
"p  c #817B56",
"a  c #807758",
"s  c #827D5A",
"d  c #837E61",
"f  c #86815D",
"g  c #89835E",
"h  c #868162",
"j  c #8A8462",
"k  c #8E8966",
"l  c #878169",
"z  c #898469",
"x  c #8E896A",
"c  c #928D6C",
"v  c #98926E",
"b  c #948F71",
"n  c #969173",
"m  c #9A9574",
"M  c #9E9975",
"N  c #9E9A7B",
"B  c #A09A76",
"V  c #A29D7B",
"C  c #A99F7B",
"Z  c #A5A17D",
"A  c #A9A37E",
"S  c #9E9D81",
"D  c #A39E81",
"F  c #A6A282",
"G  c #AAA583",
"H  c #ADA985",
"J  c #A6A589",
"K  c #ABA68A",
"L  c #AEA98A",
"P  c #B1AB86",
"I  c #B2AD8B",
"U  c #B4B187",
"Y  c #B5B18D",
"T  c #B8B38E",
"R  c #AFAC91",
"E  c #B3AE91",
"W  c #B6B192",
"Q  c #B9B495",
"!  c #B6B399",
"~  c #BBB69A",
"^  c #BDB99C",
"/  c #BEBCA1",
"(  c #C1BC9E",
")  c #C3BDA2",
"_  c #C3BEA9",
"`  c #C5C19E",
"'  c #CAC59F",
"]  c #C6C2A5",
"[  c #C9C4A6",
"{  c #CDC9A5",
"}  c #C6C3A9",
"|  c #CAC5AB",
" . c #CDC9AC",
".. c #D0CBA5",
"X. c #D1CCAE",
"o. c #CCC7B2",
"O. c #CECAB1",
"+. c #D2CDB2",
"@. c #D5CFB8",
"#. c #D6D1B4",
"$. c #D9D4B6",
"%. c #D6D2B9",
"&. c #D9D4BA",
"*. c #DCD8BD",
/* pixels */
"I U H Z $ , L J % & & & p 7 i p A U H Z $ & r r 8 8 f 8 w p w 7 # X > $ s 8 p i P P T P P U L E | %.} } *./ # < % % 6 d L H U J ",
"G G H F & 2 L N : O & > 7 e g s H T U Z $ & r r r r 6 2 y s y s 4 0 : : w 4 i p C A P P G P H E } } o.+.} ^ 2 < ; : s h L H U H ",
"U U T F   , Y I , : e r i g A T P U H Z $ * 8 8 6 r & % % % X ; L N o % p p p i 8 g Z U U T I E R / o.X.*. .- X & % 4 s H Y U H ",
"L Z I Z & 6 N x # : e p s g A P H L H Z * * 6 6 y u + ; y t w y J N 1 > s i 5 i 8 g B G H D V C N J X.] ~ L 2 , : , 6 h G F H V ",
"U H T Z $ O , & % 1 y k P U U P H L Y F % : < , u 9 # t ] | O.) # # @ % i e 5 p e e p 8 8 8 6 r u h $.] : % $ % o > e e r 7 e r ",
"V Z G m 4 , + & % 4 5 a C P P E Y L W F ; % # ; d t t h o.o.+.) q 4 t t y y i i u 8 r 8 r s r s 6 u ~ L : # > : % , 7 e r 7 7 r ",
"s 8 8 k J H > * a s d i s k C I L J I F # & ; < E W | ^ $.| X.| | O.X.E , % e a s 8 r r r r 6 8 ; % < & * , 6 r $ % $ : e p r 8 ",
"8 r e f H M X > y 0 a 5 5 s D H H F I Z % > , w J Y #.] |  .[ o.| +._ ) ; % d 5 t 4 8 6 8 r 8 8 & & > , * : w e > % $ * 7 e e 7 ",
"i 8 i s a i ; @ ; % % % ; $ d e 7 g H H & & Y H H I I W H E #. .#.| E D : & ; & < + $ & O $ * O $ * P H 8 r u 6 p i $ % $ % p y ",
"6 i 7 5 i 5 1 0 ; 5 2 5 1 1 5 e e f Z B & , Y P E I D L I E { ( ~ ( D m , + ; : & & > * & % * * & 6 Z Z s p u r a 3 > 1 5 0 7 4 ",
"& * % * a a i a | X. .T @ % % 1 7 8 f r O * H U P E K I W I #.) ; 1 % ; - + : + + : + $ % % O O 7 i f 7 w w 8 6 5 y 5 s ] ( 1 % ",
"& $ $ % y d d x | | #.) 4 y % % 8 8 6 3 & 3 M A C A V V I H ) ( ; % 0 0 6 9 w 9 w 4 9 6 ; : 2 , r p w 7 f s c k s b h b #.) 0 4 ",
"g i g i y s K Q  .X. .+.X.) : @ $ % $ $ $ o ; > % % @ 4 D E ! D > 5 { #. .+.O.+.O. .O./ < & w w e e p y r h `  .X.] o.X.[ | +. .",
"i * p i s j K I  . .| | ^ K 1 > : 1 > > 4 > ; ; 4 2 2 d E ~ D n ; , ( { [ | / }  .} O./ - & u r r 8 e 5 s k ] X.{ ] [ +.X.| } ! ",
"i 8 p g K L W I #. .#.^ < ; # : y e t w y y a d  .+.o.| _ ) 9 2 s e s s N R R ! O.} O./ < < r t e e p g L H U J L R J R *._ < + ",
"8 i i i T P L Y ] [ ] E # : ; : y e y y d s a c _ _ +.O.O._ ; ; 5 g e j Y Q K L } O.%./ < - 6 d e r e e Y R H R L R L S } ! - < ",
"i 8 8 u T P Y H P G ; > ; ; + 1 w e 8 8 U T ` { K ~ @._ @./ @ , i i C ( F E ( E X._ @.( ; ; a a e e e f P H H Y H J : # < < - < ",
"7 f u 8 H A Z A G M # % : > : : s 8 f p A T {  .E K o.@.@._ > % i d G I P I m F ) ) ) K 9 ; a 5 p e 7 p A H G A H m < # ; - < # ",
"  % s r s 8 r r g r # % : > t y 6 p A U U A Y J E ~ o._ O.( % > 5 p P P ( C 1 : : ; 1 1 . ; > > p p r e f r e e & # : % - # - - ",
"7 6 w u y 6 g r 6 , : & ; ; u d r j A H U Z U L D E +.O._ W 1 % i s P P F d : ; 1 > ; 1 > 1 % % 5 w e e 7 3 7 7 $ # 2 > t 2 t q ",
"+.~ # # s y e w , $ : # : : u t 6 6 8 s J U U W W E &.~ % : 7 8 i p T C 5 % o ; i 5 q i a e % $ & # $ % $ * > $ : > t u ] X. . .",
"| ^ 0 0 t w u e # o > : : & y t u s 8 s A U V Z D K [ I : > e 8 i p C v > $ * 3 i i d a k s , 3 4 1 4 7 o $ : & & , w h  .O.} } ",
"@. .| ( > # 1 % # , y 6 & @ : > u u w 6 r 8 8 s s y % ; w g 8 7 e 3 , $ o % i p i d K P { ..' ..{ X.X.~ 4 O $ & e r e f L W |  .",
"o.| &.! # 1 % ; & , y t 4 , : : y t r f 6 8 u 8 t 5 % 3 w i 7 p i i % $ > 3 i i p d I I ' ..' { ] { X.~ 4 $ > > r r t k J I X.] ",
"| } %.~ : < ; > y s w s #.Q $ # O ; u 6 r r r 8 : & # 2 s y 8 e e e % * i e 7 s H I G T H U I P L W #.Q % , 6 u e s L H H E I L ",
"%. .+.~ # % 1 % 5 y t j X.^ w w 9 2 y f 8 3 p 3 & : # ; s e e 8 y 5 % > p s i s A H V A C P G K K F #.^ % < 8 s u f U P I W R H ",
"] [ +.) : ; d u p p w j ..X.^ } @.E - o & % & O o : % @ & % r s p y % * i y i i e i a s a s w a u h #.] : % 8 w 6 s I H L H L I ",
"| X.^ L > # u e y y w x ] [ X.#.#.) w 2 * & & , 2 t 4 t ; > e 5 a w % * 7 e 8 7 i 5 5 5 5 a y y u h / L 2 ; u s r h F G L L L I ",
"L Z < % O & e e e 7 w j K Q ] [ / |  .( : $ 8 h ..+.[ ~ ; # ; % s 5 % % % % * $ % > s a ; @ ; < t q < ; O % y u 8 6 p g G Y Y G ",
"K N % o 3 3 8 r p y d x G Q [ O.&.%.) K * * 8 h ( [ +.} 0 0 ; 2 0 5 * * * % 3 3 % > 5 i t ; 0 9 l l 2 < u y 2 3 p r e p A H H Z ",
"e r $ $ 8 6 w r 8 s F G E E E E | ! ; % e p r s Q E | @.} / < @ ; , 5 y i j C P ( B % 5 _ @.@.| | O.}  .| Q 2 2 r p i 7 p 7 w e ",
"r 6 & , r 8 8 8 i g Y P I I J E +.) ; 1 u 7 f f K I +.] %.) ; < % , e p p g A U B G % 3 _ ) ) O. .} O. .| ] % $ 6 e e w s e e e ",
"% : % # r p 6 f P P H P I P I P #./ @ & 7 g A P P P H I $.~ ; ; % * 8 g G A Q A * % i i y d E E E K _ _ X.[ ; # : % < % % % ; % ",
"1 1 % w w 6 8 8 P A P H H I F P / L : > p g C A A P I G $.) < 9 * % 7 r H A A M % * i s a s G D E ( $.) X.( ; > ; = 4 1 2 0 2 < ",
"#.Q @ o & > 8 p 8 p P T T H p 0 > , o & p i p p g 7 Y ^ ] +.| Q % * i g U Z 3 & $ > 7 e s j U Q F P .._ +.) : ; y s G E ) {  .| ",
"O.~ 4 2 > , 4 r 8 p V A C B p 0 % - , , p 7 7 8 i i Z G ^ [ &.) : * e r U Z O & % 3 7 7 a s C K G ( ..X.) I , $ t d K Q ) | | [ ",
"%.| X.~ ; @ % % s p i a i i s y : : u w p u e p i i g e a d _ _ : : y u Y H * , 7 y s e i 4 p e I P E B ; ; & 1 w h K I W H L G ",
"] ) *.~ 0 5 % 1 3 e 5 e e 5 e 5 % : t t y r 6 y 7 4 e u a d _ _ % : u h Z N # & r i p y i 7 k f K G H D 1 % 1 % 6 h K I I L I I ",
"I ^ +.]  .Q % % % % ; % % * % % : % ; % X % # : # , o 2 E D 1 ; : % w w u h > 1 y 0 e e 8 f A P E G s e $ % i e y g H P I P L P ",
"K E { ] $.( 1 ; , % , % % > $ > : < 2 6 1 0 2 2 2 < ; 4 R D ; ; % < u u t e : # s w s r 7 p P A C D i 3 * % w p e g F H I L P H ",
"E ! I I @.~ ; ; y y e i y e i i 4 z ] #.| | X.{ _ ) ; ; ~ R % ; : % - & + O : & : : s e 6 f 7 8 r 8 * O & & u e e u w f H T H L ",
"D D E I +.( ; 1 y y e e s s s s f b ] { [ |  . .@.! ; 1 D D ; ; < $ w 2 0 t - < % : u s 7 r r 6 6 6 : % & * 7 7 w r 8 f Z J A F ",
"d d I Q +.) > ; y i s s H G G P J Z W Q  .#.O.O.*./ ; ; ; ; ; % + w / { } Y - + < % + - # # > o , & & % O : & > e s 8 t f s r u ",
"0 y K E ~ G > ; y y y s T P P P T H H L ]  .O.O.o.! ; ; ; ; 1 1 < f ]  .+./ t t 2 q w e , > & , % $ > > & , O : e s e 8 y 8 w 8 ",
"s y u 5 1 ; $ 1 y y i r U A P U P H L H W E } O.*./ ; ; ; , e p A J U R O.$./  .} o. .} ^ Z : # d u d w e t $ % t e w t r r y u ",
"4 6 t w 1 % % ; a i p s A A A A A H Y P I R | O./ K < = % ; e g U U J U ]  . . .O.o.O.^ K N > : r 6 t w k g t 4 u r e t y y w 6 ",
"* & % o X $ % 1 e e 7 7 g p p p U P H H W W O./ < < ; ; 1 ; 7 p A U H R U L R R o.O.*.^ > : 0 h e r r h [ ] { ^ $ # # & % % % + ",
"& $ 0 , 5 0 % ; y y 7 e 8 8 8 p A A G F J L | ! 1 % > % ; % p r U J U L J R R ! o.] O.} ; : h w s r r h { [ $.( 6 2 4 2 2 < > & ",
"# 0  .| +.~ > X % ; % ; a y s y r r r u w s 6 t % O & < p 8 7 f A T H G Y I F Q R ! #./ - & 8 p 6 p H U A T {  .| ..| | O._ - = ",
"# y | |  .E 0 9 < 4 @ < y t y t t r 8 e r u k r , , $ & 7 7 8 g G A H H U I L L L ! } / , < t 6 r f Z H P Q [ { | | [ _ o._ q q ",
"# 2 L E +.X.]  .@.W ; # < ; % % O ; % & + < G A Y Z $ * 6 f 7 6 p j G H P G T L K !  ./ : O s u 8 g P P I H L W I E R ! @.*._ _ ",
"; 0 L E [ [ X.| ( I 1 ; y < , 0 w 2 2 , O 6 H J Z M * * 6 r r f e p Z A T A Y L K ~ X.] < + u 8 8 j Z A W L G L I E R ! _ o.o.o.",
". , E W L W +.( 1 ; . 9 _  .#.X.| X. .~ 2 % @ $ O < X $ % & w 6 r y p p P P Y L +.| +.^ ; : u 6 8 6 e f H W L W D Q _ +.@.o.@.o.",
"4 y L L F W ) E 1 ; 1 d +.+.+.) | X.` W 2 , @ 5 : 6 , 4 : < f u r p e r A P H L ] ) +./ ; : t 8 r w r u Z L F K I ~ X.#./ ! / / ",
"F G T Y I D 4 # . a K R X.{ o.@.+.I 2 2 0 d t s { X. .E > % 0 u 5 e r 7 p e 7 y y x O._ < : # & # : e 8 s e y h +.| X.~ q < ; ; ",
"G H Z V L V @ > ; a L W _ #._ _ @.~ ; ; y y s x ] [ { ` , w t y u e e i 5 8 e y t d ) ~ & < % > # & e t y w y h ) ) _ ! ; ; ; ; ",
"& O $ > * > % > R R W D ( R E E $.( ; ; a d G I L P E L +.( ; ; y w a 5 > & $ * ; ; ; ; t y t w ; > ; # > ; y t a a ; , % ; ; @ ",
", , 3 ,   O , y K L E D R D ! E _ ( % ; d d I I I I E E  .~ 9 9 s y i 3 * $ $ , 1 , 2 0 d d u d ; X ; % ; > y y y w % ; % ; 0 1 ",
"A A H M , 8 N H K G E E W W _ @.&.) ; % a a E I G G F L X.%.) ) ; % ; $ $ * 3 f [ [ [ _ | [ ] ] ; : ; = > % X ; ; ; ; ; ; 5 V G ",
"Y U Y N $ 4 A I ( P C D D G ( ( ) I ; > a a F F W E I Q  .O.| / > % % % & 3 8 f { | | | +.+.| [ 9 9 9 , < < 0 > # % ; $ > , D E ",
"U H Y N o 3 I I H m , > % % 3 % > ; $ 1 8 r s p H H H W | | @.^ > & : * 3 8 6 p H L I ~ } O. . .#._ @.~ # 9 | ) 4 : > * e i I G ",
"L H L Z # 6 Y H T N & $ > % > $ ; % ; 2 4 r r p G A L L } [ %.) ; # > 3 8 f 8 f L L K ! ]  . .| | } %.} , q ) ~ % o : : i s T G ",
"U R Y J & 2 L G Y Z $ * i e i i s 0 : O O > 8 p 8 f H W +.+.+.^ 1 , e r p 8 8 p L I K R W E L E O.@.O.O.| ^ t % ; < y i i p I P ",
"J H G N o > H H G Z O & 7 7 5 e r 0 % & O & 6 7 3 f J H } [ _ / ; ; e 8 6 6 6 p G K R K K J J R | _ } ) +.( @ ; ; % 5 e w a H C "
};
