/* XPM */
static char *wall_41673551659[] = {
/* columns rows colors chars-per-pixel */
"64 64 241 2 ",
"   c #847F5F",
".  c #7E8B65",
"X  c #7D8D75",
"o  c #7C8C7B",
"O  c #7B9379",
"+  c #79916D",
"@  c #96884E",
"#  c #88895B",
"$  c #928B5C",
"%  c #928655",
"&  c #8E8449",
"*  c #8B8561",
"=  c #8D8B64",
"-  c #86896A",
";  c #8D8C6B",
":  c #858765",
">  c #928C65",
",  c #928D6A",
"<  c #958A6A",
"1  c #8C9165",
"2  c #8C926B",
"3  c #93916B",
"4  c #999369",
"5  c #848E75",
"6  c #8B8D73",
"7  c #848E7B",
"8  c #8A8D7A",
"9  c #86877F",
"0  c #928D73",
"q  c #9A8D7A",
"w  c #849176",
"e  c #8A9274",
"r  c #84927B",
"t  c #8A927B",
"y  c #869978",
"u  c #929374",
"i  c #9C9373",
"p  c #959874",
"a  c #9C9A74",
"s  c #93947B",
"d  c #9C957B",
"f  c #969B7B",
"g  c #9C9B7D",
"h  c #A4987A",
"j  c #A0996D",
"k  c #93A17E",
"l  c #A8A37A",
"z  c #7D8E86",
"x  c #7D9384",
"c  c #7C958D",
"v  c #7B9492",
"b  c #729BA1",
"n  c #7FBCDB",
"m  c #7EC3E5",
"M  c #818F82",
"N  c #868E87",
"B  c #849283",
"V  c #8B9482",
"C  c #879888",
"Z  c #9C9C84",
"A  c #969986",
"S  c #849990",
"D  c #979992",
"F  c #A19D85",
"G  c #A49D89",
"H  c #A99D84",
"J  c #9AA18D",
"K  c #8CA19A",
"L  c #9BA290",
"P  c #A3A285",
"I  c #A4A28B",
"U  c #AAA588",
"Y  c #AAA494",
"T  c #98BBBB",
"R  c #8FB7B7",
"E  c #B8BEA5",
"W  c #ADBDB8",
"Q  c #CCBFB6",
"!  c #CBBCA9",
"~  c #BFC09E",
"^  c #8CC3BF",
"/  c #BBC7AB",
"(  c #A5C3BB",
")  c #BDC5B4",
"_  c #BCCAB5",
"`  c #BBC5BC",
"'  c #B6CCBC",
"]  c #BCCBBC",
"[  c #B5C5B7",
"{  c #BDD2BA",
"}  c #ABC0AD",
"|  c #CCC99F",
" . c #C4C4AA",
".. c #CBC4AC",
"X. c #C6CCAB",
"o. c #CCCCAE",
"O. c #C7C5A5",
"+. c #D3C5AB",
"@. c #D3CCAE",
"#. c #D7CBAB",
"$. c #CBD2AD",
"%. c #C6D1AF",
"&. c #D6D0AB",
"*. c #C4C5B3",
"=. c #CCC6B4",
"-. c #C5CAB4",
";. c #CCCCB4",
":. c #CCC5BA",
">. c #C4CCBB",
",. c #CDCCBB",
"<. c #C2C4BC",
"1. c #D3C6B3",
"2. c #D3CDB3",
"3. c #DBCDB3",
"4. c #D3CDBC",
"5. c #DBCEBC",
"6. c #D5C4B9",
"7. c #CDD2B3",
"8. c #CCD2BB",
"9. c #CCD9BB",
"0. c #C5D2B9",
"q. c #D3D2B5",
"w. c #DAD2B5",
"e. c #D3D3BC",
"r. c #DAD3BC",
"t. c #D4DABC",
"y. c #DBD9BE",
"u. c #DADBB6",
"i. c #E0CDBD",
"p. c #E2D7BC",
"a. c #D9E0BE",
"s. c #8EBEC5",
"d. c #95BDC5",
"f. c #9ABDC5",
"g. c #94BDCB",
"h. c #9BBDCC",
"j. c #98B7C2",
"k. c #8DBDD7",
"l. c #93BDD3",
"z. c #9BBDD2",
"x. c #95BDDA",
"c. c #A4BCCA",
"v. c #A2BED4",
"b. c #8DC9C9",
"n. c #94C3C4",
"m. c #9BC4C6",
"M. c #95C2CD",
"N. c #9BC3CC",
"B. c #9AC9CC",
"V. c #93CBCA",
"C. c #8EC4D3",
"Z. c #8CC4DB",
"A. c #8CCAD5",
"S. c #95C4D3",
"D. c #9BC3D4",
"F. c #95CAD3",
"G. c #9BCAD4",
"H. c #94C4DB",
"J. c #9BC5DB",
"K. c #94C9DB",
"L. c #9CCADA",
"P. c #A2C5C3",
"I. c #A2C4CC",
"U. c #A7CACB",
"Y. c #BCC6C3",
"T. c #B4CBC3",
"R. c #BDCBC3",
"E. c #BDC5CA",
"W. c #B5CCCB",
"Q. c #BDCBCB",
"!. c #B2C4C6",
"~. c #BBD2C8",
"^. c #A2C3D3",
"/. c #A2C9D4",
"(. c #A3C4DA",
"). c #A4CAD9",
"_. c #B4CCD2",
"`. c #BACDD4",
"'. c #BBD2D0",
"]. c #AFD2CE",
"[. c #86C3E3",
"{. c #8BC5E4",
"}. c #8CCAEA",
"|. c #87C7E8",
" X c #95C5E3",
".X c #9CC4E3",
"XX c #94C9E3",
"oX c #96C7E9",
"OX c #87C8F2",
"+X c #A6CAE2",
"@X c #C1C6C5",
"#X c #C3CBC4",
"$X c #CCCDC2",
"%X c #C3CBCA",
"&X c #C7CACB",
"*X c #D3CEC2",
"=X c #DCCEC2",
"-X c #D7CBC6",
";X c #C4D1C4",
":X c #CDD3C3",
">X c #C4D2CB",
",X c #CDD4CA",
"<X c #C7DEC4",
"1X c #D5D3C3",
"2X c #D9D4C3",
"3X c #D5D9C3",
"4X c #DBDAC5",
"5X c #D5D5C9",
"6X c #DBD5CA",
"7X c #D5D9CB",
"8X c #DCDBCB",
"9X c #DCDDD1",
"0X c #D7DCD4",
"qX c #C5CDD0",
"wX c #E4CDC3",
"eX c #E3D4C4",
"rX c #E1DBC5",
"tX c #E2DDCC",
"yX c #E8D9CA",
"uX c #E2DDD2",
"iX c #EADDD2",
"pX c #EADAD5",
"aX c #F0DBD6",
"sX c #DDE1CD",
"dX c #D8E0C3",
"fX c #DDE2D3",
"gX c #E4E1CD",
"hX c #EAE4CD",
"jX c #E7E2C6",
"kX c #E4E2D3",
"lX c #EAE4D4",
"zX c #E4E4D9",
"xX c #EAE5DA",
"cX c #EBEADC",
"vX c #E9EAD5",
"bX c #F3E7D8",
"nX c #ECF1D5",
"mX c #F0E6CB",
"MX c #DCDFE2",
"NX c #E8E7E2",
"BX c #F1E8E0",
/* pixels */
"q.e.e.1X6X-XwXi.2Xe.e.1X8XzXzXkX@.w.2X,.tX1.i i q.$.. + A.|.K.S.{.{.[.n |.}.[.}.|.[.{.{.|.[.{.[.|.|.|. XM.C.|.|.]._ 1X4.d d 3.i.",
"q.e.e.e.1X2Xi.5.3X1Xe.3X8XfXuXtXr.y.tX6.r.=.H H w.7.2 O K.{.S.m.M.G.).L.J.S.g.J.S.J.H.J.J.H.H.J.J..XS.l.P.B.[.XX]._ 1X4.I I 2.w.",
"t.9.3X3X5X5X2X2Xt.9.9.1X3X7X4X3Xq.e.6X*X6X4X6.i.r.;.; r h.J.W.Q.R.R.` R.R.Q.Y.R.Q.R.E.R.R.Y.Y.Y.R.#XY.Y.0.{ M.G.~.0.2X8X-.-.8X3X",
"X.X.X.-.;.,.2.=.;.;.X.X.-.;.;.;.7.-.$X,.-.e.2.5.=.! 0 V h.(.%X$X4.,.*.=.;.,.,.;.=.,.=.,.,.,.4.,.=.-.,.-.E E I.I./ / =.r.8.0.8.-.",
"= = = < < < ; ; > > = > = = ; ; u - 8 5 . # = * u e . V h.v.Q.:.,.4X5X8X2X,.t.4.1X5X1X4X8XlXxXxX8X0.7X_ p C d.d.M < 0   = > * = ",
"e t s V V N C V 7 8 8 8 e e t 8 B O B B O y y e r r 7 D l..X`.>.1X4X*.:.4X5X2X5X*X$X1X2X8X8XgXsX7. .fX0.- O D.g.N V A 8 t t 8 t ",
"M.g.z.z.h.S.Z.{.D.D.D.N.I.N.D.D.N.M.M.B.V.^ T f.(.^.c.c. X X`.>.:X,.Z Z ,.2X1Xe.4X4X8XgXkXzX8X5Xd g ,.,.5 x XX}.g.j.I.c.N.G.n.M.",
"H.S.J.z.z..X|.|..Xx.J.D.N.N.D.J.n.G.J.B.V.m.B.^.v.v.c.^.{. XW.-.e.e.Z G e.3X2X1Xe.1X8XkXlXgX2X2.a U t.4.e x Z.{./.f.^.N.S.G.b.B.",
"W.Q.&X@XY.'.n.).`.%X%XR.>.;X%XE.@X&X&XY.] _ 0.] R.Q.&X!..XJ.!.>.t.2X2.r.hXhXr.r.gXtXlXhX2X4.2X5.p.3.r.;.0 7 z.D.W.#XY.&X#X' >X] ",
") :.:.4..._ m.m.@X$X:.*.....;.$X$XQ -X*X7.$.7. .,.:X/ W ^.G.R.8.4.2X2X2XlXgX2Xr.tXtXgXrX2Xe.r.r.3.3.r.;., 7 h.(.Y.;.*X:.-.=.=.1.",
"8.3X2X1.s r n.V.` 4.*Xe.u.u.1X,X8X8.zXfX0.9.3X:X,X>.s V f.P.X.| 7.3XfXkXfX8X5X5X5X5X5X1X5X-X*X2Xr.w.6X,.6 B h.D.~.*.6X-X5X8X4.8.",
"0.-.5.o.# X V.V.#X,.1Xr.| &.t.,X3X1XNXzX8.:X-.,.7X,.. 5 ( U.0.O.5X7XzXzX9X7X5X1X$X1X,X5X0X7X,X1X2X4.2X,.6 r g./.R.) 6X6X*.$X8X6X",
"e f 3.3.> y V.b.#X=.2X..j l ;.1XyXyXxX6X6X4.H A e.e.- B D.z.'.$XkXgXkXtX2X1X1X4.4.4X8XtXlXuX1X2X5.5.2X,.; r d.B.] *.6X4.A D tXpX",
"f J p.3.# y ^ V.#XQ 6X4.h l 1X8XlXbXpX6XtX:.H F 4.;.= B D.x.`.&XxXgX4X1X2Xe.2X1X1X8XtXkXlXtX2X2Xr.5.2X=., r d.I.' =.e.4.Y Y pXxX",
"3X4.p.+.= C b.F.qX-X6XwX+.w.xXuX4XgX6X*X5X1X4.2X4Xo.= y I.(.'.#XfXgX2X1X6X5Xe.5X8X8XkXkX6X5X1X1X1X*X7X;.2 O ^ B.' $.r.2X2X8XkXuX",
",.2XwX+., O A.G.c.-X-X5.w.rXzXNXsX4X,X,X,X1X4Xr.r...> y g.D.Q.$X1XtXt.4.4X5X4.4XkX9XkXkX1X*X5X1X1X1X7X>.2 y d.B.' 0.2X1XcXBX1XtX",
"7X8.nXrX6 c C.C.R.=.=XeX*X7XkX8X1X1X1X1X*X1XsXgX5X1.> t S.XXR.;.e.r.w.y.:X3XrXrXzXkX2Xr.1X1X2Xr.gX4XcX7Xe C g.L.R.>.xXNX9X9X7X5X",
"8.1XhXu.e C C.F.#X2.r.2X&X,X4XtX5X7X,.t.8X6XsX3X6X=.> 8 H. XY.@.y.&.3.w.8.3XjX4XfX9Xp.5.1X1X2X2XrXgXcX8Xe o z.D.Q._ 9XuX8X0X5X$X",
"hXmXmXw.; r S.G.>.@.3.r.7X7X3Xr.;.3X@.r.gX8XgXnX2X2.> e S.K.Y.;.w.2.r.rX:X0.rXr.7X7X=X5.1X5X8XrXlXhX3X,.; 7 ^.N.Y.8.iXiX3X2Xe.5.",
"p.mXp.w.i r M.S.,.+.5.y.<.,.r.r.r.1Xy.y.hXhXe.dX2X1.> 8 S.K.] 7.r.2X1.2.,X1X2Xr.*X5X5.=X5X8XuXgXrX2Xt.,.; 5 I.h.[ 2.rXyX5.e.r.r.",
"gXvX3X;.u 7 H.S.>.+.y.=.Z F @.w.y.r.jXy.lXsXZ f 2X;.> 8 M.H.R.;.2X=.F F ,.8Xe.5.5X-X5.eX6XuXzXkXh U r.;.; e d.).R.-.*X6X1X8XkXsX",
":X1X3X-.- 7 S.F.-...2X=.Z U @.u.r.4.hX8XgX8XI Z 5X=., B S.K.R.,.4.4.G F ,.4X2.r.6X=Xi.2X9XkXkXtXd U q.1.; r j.).R.,.6X-X*.>.vXzX",
"s Z ,.8.3 V M.M.>.1.3X1X2.q.p.w.4.2XvXkX8X8X,.3X1X:.6 V D.L.T.,.r.4X1.=.3Xt.r.y.r.r.5.5.r.2X3X1Xy.w.4X4.3 r m.m.[ -.2X4.Z J 0.t.",
"Z I e.e.* e n.G.) =.-.-.r.q.X.o.o.r.4X3X:X*.4.q.4.*.6 B f.N.[ -.;.$.7.q.X.X.&.@.o.@.3.@.q.;.;.e.@.2.2.X.; w ^.N.>.;.2X4.Z Z 2.r.",
"2.3.3X2.> - I.d.B 8 7 7 8 , 6 ; = ; ; 6 6 - ; , - 2 : t ( T B - = = = 1 : 1 1 2 $ > , , > ; ; ; 0 0 - 6 ; w I.N.] X.5.r.r.q.w.r.",
"#.2.;. .4 8 I.h.v N z M B B r 5 7 e 7 r x 7 r 8 r C M S d.R S r r O r r y y O O 7 8 7 7 e e t r N N z o 5 x g.D.' ;.6.5.2.@.3.&.",
"< , ; u   r m.H.S.h.z.h.m.d.m.d.f.h.z.l.x.z.c.c.h.z.l.x.oXoXx.g.h.v.x.l.h.l.l.H.z.v.x.z.z.v.z.z.j.g.G.m.P.m.}.{.v o 8 V 6 , > > ",
"7 B B B B K M.Z.{. XJ./.D.G.N.B.I.^.(.J.J.D.v.v.^.D.(..X X.Xx.^.^.(..XH.J. X{.oX.X.X.X.X(.(.v.x.(.N.G.N.m.B.m m b c N N N B V 8 ",
"g.J.M.M.d.s.Z.[.{. X^.E.W.T._ _ _ ] Y.T.T.' -.-.>.' R.Q.T.T.Q.>.>.] T.T.'.'.U.d.W.W._._.R.>.R.] $X<.R.R.' ].}.}.J.m.h.h.S.M.b.S.",
"C.F.G.G./.G.G.K.{..XE.$X;X,.2.@.@.;.,.>.0.0.2.@.o.X.,.>.>.0.2.;.2.;.0.] } } P.( R.] %X;X;.2.;.2.o.=.e.:X/ } XX[.M.P.c.^.G.J.F.H.",
"T.' ] ] { Q.T._.H.(.Y.,.,X3X8.q.q.e.1X,X<X:X5.3.r.t.-X5X,X1Xr.r.3.2.3X_ A C T W.R.$X>X,X5.3.3.w.r.r.,.-.s C N.J.W.] #X#X~.R.] R.",
";.;.;.X.;.-.*.T.D./.<.4.1X1Xq.q.r.r.5X5X,X5X5.wXr.1X6X-X5Xr.*Xi.3.@.3X-.t 7 R U.R.#X,X,Xr.2.3.p.2.r.e.e., 5 m.G.R.;.2.;.;.X.=.-.",
"e.u.q.r.t. .f r g.D.#X*.t.7.g F e.e.5X5X:X1X1Xr.2X2X1X6X2X*XlXtXd G e.t.= t d.M.Y.<.sX;.g P 2.2XZ F t.q.3 5 h.D.%X;.e.r.;.e.1Xe.",
"=.3X;.2.gXo.3 X N.(.@X..7.X.F G e.4.r.1X1X2X2X2X1X1X$X2X2X8XxXtXG U 7.$.= t M.L.R.=.e.O.F U =.e.G G 0...# 5 n.L.` 4.t.y.e.q.5X4X",
"e.4.Z g 2.;.= t M.S.@X4.t.a.o.2.2X4.1X2XrXuXtX8X4.1X,.2XkXkXkXtX=X=.4Xq.= t M.S.Y.,.4X4X;.7.2Xr.4...dXq.= e g.G.Q.*.e.=.s I gXkX",
"e.;.F I r.e.1 r N.l.R.4.7.a.e.2Xr.1X2XtXkXlXtX8X1X2X2X8XxXxX8X6X2Xr.3Xo.= r n.J.E.,.e.t.q.r.4X2XrXq.3X$.> 5 N.J.%X*.2Xy.P I kXkX",
",.e.4.;.3X1.1 e G.D.@X4.;.9.r.4.4.2XtXgXkXtX8X1X4.8XtXkXcXkX2X6X5.4.1XX.> r D.J.Q.,.,.e.4.r.*X*XiX4X3X%.= e g.J.Y.5Xr.2XjX8XkXkX",
"5X1XtX2X,. .3 t S.J.E.4.t.t.4X4X2X8XkXlXtX8X2X4.1X2XkXkXkXtX1X2X2X8X3X7.3 5 n.J.Y.,.1X4X3X4X2X6XbXlX4X7., r g.S.%X4.,.t.hXvX9X4X",
"1X1XhXtX8X2.3 5 M.J.E.6.8.7.e.4.gXgXgXgX2X2X1X5X1X1XkXkX8X2X*X=X4.2X8.;., 5 S.H.%X:.,.e.2.t.kXcXrXtX7.;.= e M.J.E.:.xXvX8XgX5X*X",
"1X8XhXtX4X=.= r g.J.Y.4.3X1X2X1XxXkXtX2X1Xe.1X2X2Xe.uXtX*X5X1X2X-XtX1X;., 7 M.J.Q.=.1X4X1X2XzXpXuXkXe.7.; 7 g.J.E.,.vXgXrXkX$X6X",
"zXkXuXrX8X;., w M.D.%X=.e.e.1X-XtXrX2X1X1Xe.2X2X1X2X5X1X2X6X1X2XaXiX4X;., 7 M.H.Y.$X,.1XlXvX8XuX2X1Xe.$., 5 l.J.E.*X8XgX4X1X1X*X",
"kXkXtX2X4X1.; w D.S.%X:.1Xt.1X=XrX4X2X1X1X1X2X1X2X2X1X,.1X1X1X6XxXuX7X;., 5 S.G.Y.4.4.2XhXlX9XuX2Xr.:X-., 7 D.J.Q.,.4X8X2Xe.6X6X",
"uX9X8Xr.2X;.1 r M.D.&X=.9.9.1X2X2X1X1X1X1X2X1Xe.gXgX6X1X2X8XuXlXiXuX5X;.> r n.J.R.,.e.1XjXgX6X6X*X2Xe.7.3 7 g.J.%X$X1X2X1X2X9XzX",
"9X6X2X2X2XX.> w N.S.&X:.e.3X1X1X-X1X1Xr.1X5X2X8XlXtX5X1X6X8XkXkXuX9X3X;., r M.S.Y.=.e.3X8X6X6X5X=Xr.e.7., 7 M.J.Q.:.4.1Xr.2XkXzX",
"1X5X2Xe.3Xo.> w S.D.#X=.e.t.1X2X2Xe.1X1Xe.6XtXkXlXgX1X1XtXlXkXtX6XeX3X-.> e M.J.R.=.e.y.2X1X-X*X-X1Xe.7.3 5 M.J.E.:.4.1Xe.2X9XuX",
"*X-X2Xe.4X@.= w m.S.&X=.9.e.*X1X2X1X2X2X2XrXkXvXlXtX5X2XkXxXuXtX-X6X1X;.= w n.S.Q.=.e.3Xr.e.6X6X1Xr.e.X., 5 l.J.%X,.1X2Xe.t.8X8X",
"1X1Xr.4.3Xo.1 w M.D.#X=.e.t.1X=X2X4.1X2XtXkXkXtX2X5X*X1XtX9X2X1X-X-X1X;., e n.J.R.=.e.t.q.t.pXuX*X2X9.;., e n.J.E.,.e.t.4.e.5X1X",
"e.*Xr.4.r.$.$ e m.N.&X;.t.8.r.2X2X4.1X2XlXxXgX2X4.2X1X6XtXrX2Xr.4.e.e.$.1 5 M.G.] =.e.y.e.1XzXxX2Xr.9.7., 7 n.J.%X,.8.e.q.8.1X1X",
"t.2.d H e.e.$ 6 c.h.&X-.9.7.d h r.4.=X6XuXuX4Xr.r.t.-X6XeX5.r.q.a a t.X.; r s.L.%X=.e.2XtXvXuXuX=X*X3X7., r g.S.Q.) t.%.k k $.3X",
"$.X.H Y >.%.$ 2 c.^.R.>.9.7.H h r.t.1X6XuX6X3Xe.7.e.6X6Xp.r.q.q.a l q.0.i V g.J.Q.:.5X9XxXxX8X4X2X*X1X;., e n.J.>X*.9.X.P U o.r.",
"t.3X6.*XsX{ 1 e h.+XQ.>.<X9.4.5.q.t.1X5X7X5Xt.q.8.9.1X5X2Xe.t.q.w.3.rX6.q M z.J.R.*X9XzXzXzX7X7X5X1X3X-.> 8 z.D.#X,.2Xr.+.+.p.eX",
"/ 0.=.*X0./ 2 e j.(.!._ { / ;.2.@.$.0.,.,.,.;.$.$.$.,.,.,.7.$.@.#.#.6.! q N z.D.Y.4.kXcXfX8X1X5Xt.e.4X7.> 8 h.D.` ! 1.w.3.#.i.6.",
"1 3 < 0 8 u # = c.T B e p 2 i > $ > 4 , , > > 1 > 1 , 0 0 0 > > > , s s * 7 n.B.` q.gXgX8X6X$X1Xe.2XgXu.4 e g.N.M 6 - = $ > < < ",
"w w 7 7 7 V e A !.j.c o + O s 8 e 8 8 8 9 5 e e e e 7 B z B r 8 r M z z X S S.K.R.;.4X4Xr.=X4.-XeX2XvXy.3 t g.S.S B r O e r M M ",
"n.n.B.h.J.B.R n.[.|.K.G.V.B.N.d.m.h.M.M.D.S.M.m.N.h.N.S.|.{.D.M.S.C.A.H.N.B.m |._.$X6X=XwXwXi.wXaXyXbX2Xu N [.OXl.d.n.F.V.A.Z.Z.",
"b.B.).D.F.G.M.G. X|.H.J.C.M.I.N.D.D.S.J.J.J.S.G.^.D.D.H.OXOX XD.J.Z.XXC.B.L.m }._.<.1X=XwXwXi.eXbXyXtXe.6 C {.OX.Xz.G.K.C.Z.XX{.",
"[ ] #XR.~.Q.] Y._._.E.R.R.' #X#X#XY.Q.R.Q.Q.' R.#X@X{ ].H.J.'.#X@X@XqXE.$X#XJ.D.` 1.r.r.r.yXiXbXhXgX8.7., 8 J. XW.Y.R.R.` @X&XE.",
";.,.4.,.-.;.;.;.$X&X$X,.=.-.=.=.=.6.-.>.:X:.-.-.=.4. .[ ^.^.@X=.5.1.:.*...*.^.m.0...q.y.;.2.gXsX4Xt.t.$.= 5 n.D.E.1X=.;.1.+.6.-X",
"3XtXuX8X5X*X*X1X0X9XzXtX5X1X2X2X2X2X8.0.:Xe.9.t.2X+.p C s.D.;Xq.=.1XsX0.J J n.V.{  .t.,.Z I 8.:XP U $.$.$ e m.G.' e.X.q.p.w.5.6.",
"8XlXxXfX8X5X5X6XpXkXzXuX2X1X1X=X2Xt.t.9.3X3XX.0.r.2.# O n.G.` O.q.7.9._ p C s.F.T.-.3X>.A L >.3XZ g 7.$.$ e h.J.#X;.e.u.@.2.rXr.",
"hXhX8X8.8.1X8X9XhXtX2X2Xe.=Xe.4.uX2XnXa.t.;.f f 3.3.> w F.F.>.3.u.u.t.8.f A S.F.&X4.7X7X#X&X0X5X6X,.kX4., e g.D.E.;.y.2.g h p.yX",
"sX8X1X:X1X8X9XkXhXyX2Xr.2X2X4X6XaXyXnX8Xr.1.J g i.#.$ + F.H.) +.| &.7.X.a V N.J.W Q ,.:.2X*X$X4.-X=.e.E i t D.J.Q.*.1X;.g U eXhX",
"e.2X3X3X8XzXzXkXy.r.4.4.e.2X4X8XpXpX5X1X6X6Xe.e.wX6.1 w XXZ.D i h j p f 4 J U.d.8 i 4 > > $ $ 4 4 > p 4 $ - m.S.~.,.3X<X-.,XNXNX",
",.8.4.9.7X8XkXkX2.3.r.4.4.2X4XuXaXBX,.:X-X4.2Xy.wX! > O k.k.D h 4 4 u f 4 e m.T 0 @   % @ @ @ & % % # # @ : m.S.' >.>.:X,X,XMXMX"
};
