/* XPM */
static char *e8a3d50d4cdd4a36dc1a28a690d90f92agcfKBKIzIUf44Xx[] = {
/* columns rows colors chars-per-pixel */
"64 64 158 2 ",
"   c #3B200D",
".  c #3E2719",
"X  c #452714",
"o  c #462916",
"O  c #492A16",
"+  c #422718",
"@  c #442B1B",
"#  c #492D1B",
"$  c #522E17",
"%  c #502D1A",
"&  c #4C311D",
"*  c #553117",
"=  c #54341D",
"-  c #59361D",
";  c #5B3A1F",
":  c #4A2F20",
">  c #4E3423",
",  c #543623",
"<  c #5A3721",
"1  c #553925",
"2  c #5A3B25",
"3  c #523628",
"4  c #563B2A",
"5  c #5B3D2A",
"6  c #593F30",
"7  c #613D26",
"8  c #613F2B",
"9  c #56402D",
"0  c #5D412D",
"q  c #574030",
"w  c #5D4231",
"e  c #634126",
"r  c #63432D",
"t  c #6A462D",
"y  c #654A2F",
"u  c #6C492E",
"i  c #724B2F",
"p  c #644632",
"a  c #694631",
"s  c #654934",
"d  c #6B4A34",
"f  c #664A39",
"g  c #6C4E39",
"h  c #734E35",
"j  c #794F34",
"k  c #724F39",
"l  c #6F5137",
"z  c #6D513C",
"x  c #755136",
"c  c #795136",
"v  c #74523B",
"b  c #7A553C",
"n  c #76583E",
"m  c #7D593E",
"M  c #6E5241",
"N  c #755641",
"B  c #775740",
"V  c #745540",
"C  c #705544",
"Z  c #725746",
"A  c #745541",
"S  c #7D5740",
"D  c #7A5641",
"F  c #755844",
"G  c #785841",
"H  c #7A5A43",
"J  c #7C5A41",
"K  c #7F5A40",
"L  c #7F5942",
"P  c #7E5C43",
"I  c #7E5B45",
"U  c #7C5A43",
"Y  c #745948",
"T  c #765A49",
"R  c #7F5F48",
"E  c #7D5E4A",
"W  c #7E614D",
"Q  c #815A3B",
"!  c #835A3E",
"~  c #895D3E",
"^  c #8A623F",
"/  c #835B41",
"(  c #845A41",
")  c #815C41",
"_  c #825D43",
"`  c #835E43",
"'  c #845C42",
"]  c #855D43",
"[  c #865F42",
"{  c #815D45",
"}  c #825E44",
"|  c #835E44",
" . c #835D46",
".. c #825E46",
"X. c #855D44",
"o. c #875D44",
"O. c #845F44",
"+. c #875F45",
"@. c #845D44",
"#. c #8A5F43",
"$. c #825F49",
"%. c #835F49",
"&. c #885F49",
"*. c #876041",
"=. c #876043",
"-. c #856045",
";. c #856046",
":. c #866146",
">. c #876247",
",. c #866146",
"<. c #8A6344",
"1. c #886046",
"2. c #896147",
"3. c #886346",
"4. c #8B6445",
"5. c #8B6245",
"6. c #81634B",
"7. c #846048",
"8. c #856149",
"9. c #876248",
"0. c #87614A",
"q. c #86624A",
"w. c #87634B",
"e. c #86644B",
"r. c #85624B",
"t. c #886348",
"y. c #886349",
"u. c #8A6248",
"i. c #8A6249",
"p. c #8B6349",
"a. c #8A6548",
"s. c #8B6649",
"d. c #89644A",
"f. c #89654B",
"g. c #8A654A",
"h. c #8A654B",
"j. c #8B664B",
"k. c #88644C",
"l. c #89654D",
"z. c #8A664C",
"x. c #8B674D",
"c. c #89654F",
"v. c #8A644A",
"b. c #8A684F",
"n. c #8D684D",
"m. c #8F6A4F",
"M. c #8B694E",
"N. c #906446",
"B. c #91664A",
"V. c #90684E",
"C. c #92694D",
"Z. c #846651",
"A. c #8A6751",
"S. c #846853",
"D. c #876853",
"F. c #8C6850",
"G. c #8B6952",
"H. c #8B6F5A",
/* pixels */
"4 4 1 5 A.A.9.f.,.,.l.m 2 < 5 4 4 4 q 4 4 1 2 5 = d { 9.&.k.A.r.i.) x g n v z z 4 3 0 4 > f S.6.j.m c x b l v z M Z M Y M M q + ",
"5 5 5 r 7.) ) f.f.,.F.J 2 1 5 1 4 4 4 4 0 0 r r t b 9.l.k.%.o.U _ ) x x x g f f 5 4 4 4 4 f v W f.Q m x u l C z f g f z f w 0 o ",
"2 2 2 8 e.l.i.u.2.2.f.n 8 1 5 4 5 1 4 0 z H 7.7.R +.9.l.&.o.( c k b x v n d 0 1 1 5 5 1 0 2 1 t j.^ *.x e t F z 4 5 4 4 5 4 4 o ",
"5 5 a d l.l.#.] 2.-.{ b p 5 p p 0 0 0 r x P 7.e.i.9.2.i.o.b k k k k g d g r 1 1 1 5 2 2 0 e r i >.4.s.x * 0 g r 2 4 , 1 4 2 4 # ",
"< r I 7.l.) &.V.i.{ H x g k M g z v z z l h x b ,.+.+.] b j h j v g 0 , 1 2 2 0 5 = , = * u f.f.*.<.j.x ; ; e ; 2 8 1 5 5 5 8 # ",
"8 h 9.l.n.) #.u.+.S x x v A C C g v H H x x x b 2.i.#.] c h j k f y 3 , 2 9 1 0 d r d t e b C.-.*.4.j.m u e 2 * 2 2 1 5 2 2 2 X ",
"i.) i.9.j.Q c u b x x x v v z z = r g z x l x m ,.f.i.J c c k k 1 5 4 0 0 2 2 0 6.,.f.f.) <.4.! 3.a.>.*.-.x 0 0 2 2 < 2 2 4 2 O ",
"&.) +.{ ] b ( x x b x v C g d g 1 r z v v x x b _ $.{ v k k k f 1 9 5 4 1 2 0 d e.f.-.] 3.<.^ C.>.>.m >.M.x ; e r t 8 r p r p , ",
"F.{ c x n c h k h x k v V d 2 < 2 5 , 0 v v d b k k < % 8 8 1 5 5 q 5 > , 0 x A 9.;.,.f.3.<.<.j.e.m x b -.e.l.e.k.k.Z.$.D.Z.Z.f ",
"J b x k k x c b v b v k d p 2 5 1 2 , 0 H H z H H k 6 5 8 1 3 6 , 9 w 0 r g n b l.9.2.3.>.! ! m -.m x n b.;.b ,.I $.Z.E Z.E 6.p ",
"7 t k b b v x v k k k a 8 < - , 1 1 1 p W 6.W 6.Z.d 2 < 2 3 4 3 > 0 g z v n W >.f.-.-.,.3.^ c c l t ; r e.n - 2 = d Z.D.D.M p   ",
", r g g g v A D d d h p < 7 t d t d p x e.b.;.e.G.v a 6 2 6 f 6 s x H n x n ! >.,.-.-.,.-.P x x l d ; r W n ; 2 2 a F I T f p + ",
"2 4 2 , , 0 g g 5 5 2 < - r _ l.+.+.{ ,.9.i.%.i.A.%.A.D 2 p Z.Z.E 7.7.m x h c c 3.f.i.) m x d d 1 1 1 2 2 2 1 - 2 2 2 = 3 3 6 : ",
"6 0 5 4 0 p f d , < a p 7 h %.i.u.#.3.2.2.<.2.#.Q o.A.k < t $.Z.l.l.f.,.m c c c ] ] ) b b z z z 1 9 0 9 2 r y r p 5 5 4 p 4 6 + ",
"3 > 3 4 4 4 > , 2 d E 6.v H i.+.#.~ ~ ^ ~ 5.N.#.j j c 8 - t D x ;.;.,.3.<.! Q c c c x x z x z z 0 0 1 0 z z g g x a 4 , 4 3 4 . ",
"f a 8 p p r r a 8 g 6.9.h x 9.i.N.^ ^ N.^ 4.#.! j j c i < 8 d k ;.P ) ] -.Q c j h x h g g z g w & 0 0 y E n d R v f r 5 p w f > ",
"j.2.2.2.2.2.9.9.j.,.i._ k b &.c.B.N.#.N.N.Q k h n g 1 2 1 5 , 5 v c b h k c v k x d 2 1 0 5 3 4 = p W b.;.;.e.-.u ! 3.,.f.e.A.d ",
"5.^ ^ ^ <.<.<.-.f.] ) m k b  .( ! ! ! o.o.S D V f a 1 4 4 6 4 8 g h h d k v v k n p 2 3 4 4 4 0 d n 6.e.,.,.>.! i m ^ Q f.2.f.u ",
"5.5.<.5.2.2.2.2.j.) m b c D D k j c c c c V k k 5 2 , 2 4 4 , 4 2 2 8 a v H V k V f 0 4 5 4 6 w W { e.>.2.f.5.Q c c c m f.,.9.d ",
"#.#.~ ] 2.+.+.] ,.b d d d g d d j j c h k v k a 2 2 , 8 a d r a d 5 1 r g g g g p p 4 3 4 3 6 p b.e.,.,.2.4.j.! c i c m f.+.) r ",
"i.#.i.&.2.f.f.9.x d 0 2 2 2 0 p k v v k v F V g 8 2 2 a %.k.9.9.A.k 4 , 1 4 5 4 6 5 5 4 4 3 4 p l.;.2.<.<.5.5.! c i j m f.R b 7 ",
"%.+.+.+.+.{ { R z p 2 = 1 1 4 w v v V k V v f a 2 , 2 u k.b.b.k.A.H a r p p p 8 4 4 5 4 5 4 0 f 3.-.5.4.~ <.5.! c h h b ,.b b 2 ",
"k h k k k v k g F z 0 1 0 9 4 w M z v V g a 5 2 2 - 2 r #.+.#.! %.6.r.r.A.D.Z.I , 1 3 4 4 < 2 t 3.~ 5.5.<.#.<.! c h x h H v v 2 ",
"b b k v v v v v v f 1 4 0 4 3 5 g f f M M p 5 2 7 7 e i B.2.N.5.i.i.i.%.9.r.$.D 8 r r r t 8 r h 4.^ ~ 4.#.<.<.] i c x h v x n 2 ",
"k V k D k k V A A f 6 4 3 4 4 4 3 w 3 4 5 1 1 2 = a { i.5.5.N.N.u.#.&.&.5.A.k.%.v I h m b.b.u.4.N.~ ~ ^ 5.3.2.,.x x n v z v E , ",
"V k k D V v g d g p 2 4 6 f p w 4 w 3 3 4 4 a p p b $.#.#.#.#.~ 5.~ N.( Q ) S S x x t h u.#.~ ~ ^ ^ 5.N.4.2.) b x d v l d g H 2 ",
"S S k D c d r 2 2 , , a W H.Z.A , 1 1 4 3 f Z.6.E 9.l.i.5.5.5.#.N.~ N.! c b h b h u ; u 5.#.#.N.~ ~ 5.5.<.! n x b v H d 2 0 v 5 ",
"k k 8 d g t 7 2 a a p v %.c.T V 2 5 f p , f Z.E E $.{ ) ) #.#.~ Q Q ~ Q c h a h j i - i j.5.N.N.N.N.2.,.m b v x d p g 0 5 2 z 5 ",
"< < - 2 2 ; ; 2 r.Z.r.U k d k S 5 a r.F 1 a 6.Z.g v v k h j c j j j c h x d 2 r A d 2 d j.2.] #.N.3.2.) D v v z 2 1 5 1 2 1 2 O ",
"t 8 t t t t u d l.9.+.J b k h i = a D.E 5 p F I z v v v k h k c h j x h D d , 5 g p - a 2.i.#.2.! ! J J A x d p 1 1 1 1 d p p O ",
"V.l.k.f.>.,.,.e.9.m h h c h 7 * 2 t r.D , , < 2 A A A v b x v c c v v z F f 1 w 5 5 , p 9.l.9.,.x x x x l p 0 1 2 4 5 g Z.D.G.x ",
"&.+.{ ,.e.3.;.{ $._ S k d t 8 i t u b.J 8 t 8 8 g d d d g d g d d g d f M s , 0 4 6 2 d 6.7.{ J v v x v l f 0 3 0 1 4 0 E W E r ",
"f.i.u.2.#.] b x V g D d 7 t j.2.] ,.f.f.f.x 7 O 2 < 7 3 3 5 5 3 3 1 9 9 = 9 ; = 1 1 < 8 h D D k V k M p 4 , 4 3 3 5 1 0 n v b 2 ",
"{ ) ] ] o.) A k g a g p - e 4.<.4.2.<.<.,.m h t 2 7 3 3 3 3 6 6 q 9 9 9 9 9 0 0 a t t d b S U k k V F a 4 5 p p w 0 1 y H n n ; ",
"b v k b x b x k 5 4 5 4 2 r e.2.j.5.] <.i.f.+.R < 2 3 , 8 6 3 5 3 9 9 = 1 = * e 9.;.+.9.k.k.k. .k k V a 4 p V z z p 2 d 6.m n ; ",
"g g d d g d g d 4 3 4 4 d x i.+.5.#.<.2.j.3.{ S 8 a 8 8 M f 3 3 9 9 1 0 l d y x f.l.i.f.k.i.&.+.b b c a r d v v H p 2 d M.-.m e ",
"5 3 4 , 2 < 2 1 5 5 6 p Z.$.l.+.5.5.5.5.i.) x d k V k M Z.Z 6 5 0 1 & r e.m.W ^ ] <.#.2.&.o.o.#.&.Q c c k k b x m t * d M.>.>.y ",
"6 6 5 5 5 2 5 2 1 4 4 p D.l.9.+.5.<.<.5.i.#.J c D V V D Z.A 6 < = 0 y x e.M.,.*.2.#.5.u.&.p.p.B.B.Q j b b k x h d r - t j.6.e.x ",
"> 3 4 2 2 < 2 1 , 2 , p A.9.#.5.^ ] #.2.u.u.i.%.k k g V A f 5 2 2 l e.>.-.-.>.s.#.#.#.N.#.#.#.u.&.b j x j c k a 0 7 2 t 6.6.e.d ",
"q q w a d t a a a f 5 a F.{ #.B.#.#.#.<.%.+.) S D k k V g 8 8 6 e x ,.2.<.s.4.^ N.N.#.#.#.N.#.#.o.S c k h v n a - 2 2 f Z.7.6.p ",
"5 w Z.A.b.j.j.+.k.9.r.r.i.u.#.#.<.2.-.2.C.) x b V k V k 5 = 8 8 b.f.3.2.5.5.#.#.#.N.~ N.u.N.#.o.k d k D k V U d 5 2 5 5 M I S.M ",
"1 p A.l.] ! u.b.9.,.r.9.2.#.~ ~ -.<.+.;.) m x b k k k a 2 2 8 d m ) 2.f.u.u.5.N.N.~ N.#.#.#.] m k g k g a d g 6 2 2 5 p f C Y 6 ",
"1 p %.{ #.#.N.5.&.2.i.k.u.4.B.N.4.e.f.) x x x v D V V f 5 8 A A b J #.i.u.#.#.#.N.#.#.#.&.] m k F F C p 6 5 5 < , , 4 2 3 6 6 : ",
"< a i.i.j.N.N.] Q J ) ) ] ! ~ ] ] ) ,.m h x A g f a a 8 3 8 A A k x ! ] #.5.5.u.N.#.! ! ) S c k f M f 5 5 2 8 8 g d f 6 3 > 6 + ",
"= g Z.i.5.~ #.#.c b c v x h j x x g v n g v A g < 4 8 4 3 p M V k h c S &.u.u.u.&.] b c b b b k M f 4 4 2 3 2 8 Z.c.&.M 8 < 8 # ",
"6 f x c 5.~ 2.] i a d d d d k n x k x x v v g r 2 2 8 6 4 6 M g k h k S o.&.] m ( m c h k k v k g p 4 5 5 2 a k %.&.c.( M 8 8 % ",
"A f 2 t j.3.u.m - < 2 2 8 r g x n x k v n f 5 2 5 5 5 5 3 1 5 5 D v k k b b c h c c k k v k k g 4 , 4 2 2 k &.p.o.&.c.&.&.D  .8 ",
"F d < e b.,.2.m 7 2 4 4 4 0 p g f g d f z a 2 2 5 3 2 5 2 4 w p v k h a a h v S k k D V V k f p 4 4 0 1 = h A.&.&.&.&.&.&.&.( 7 ",
"V g < r A.F.9.R - 2 2 , , 5 5 1 9 1 1 1 1 1 1 5 2 0 , 2 2 5 v H l y 9 ; * y S.b.v v v V D g 5 1 1 9 9 1 = a &.&.#.&.B.#.,.>.M.u ",
"V g 1 r %.%.I J 2 8 a 5 1 2 2 4 9 9 9 9 1 0 4 2 5 5 < 5 p p v g n y = ; 0 s n d g f f d g p 4 1 4 1 9 0 a V %.u.#.u.j.2.2.-.3.e ",
"v k < 8 V v v c c 7.l.A r 1 < 2 1 > > = , , 1 ; = , = r z A Z z n y 9 ; 9 = 0 1 5 5 4 4 5 5 3 5 9 = = y &.A.&.#.&.#.#.5.4.m m ; ",
"V g 1 8 k k x k h b $.I d t a p y d l l d d d d h d a k v z v g z z 9 = 9 = , 4 3 4 3 3 5 5 4 6 9 0 y x A.V.#.#.N.#.5.u.4.n n ; ",
"C f 2 r k v b v x m 9.l.l.A.A.A.>.e.>.e.9.9.r.9.%.k.k._ v v x v C f 9 9 0 0 9 9 0 q 4 6 6 4 3 6 & l ;.;.,.] #.B.N.5.u.i.s.n n ; ",
"V f 4 8 d k b x x b D { 9.r.9.) 3.-.>.*.2.i.i.9.+.%.A.{ V k d l y y y 9 9 9 , 1 3 9 4 4 6 4 6 q y m f.2.u.5.N.#.N.#.u.+.-.n n e ",
"M p 3 5 5 t k k x x c P ,.l.e.f.! <.#.<.<.#.#.2.i.+.k.J h t 1 2 9 y W W 1 , , 0 3 4 4 4 4 4 4 p 3.^ W <.N.B.N.! #.#.2.! n x n ; ",
"Z f 4 5 2 5 k b h h x m m ) ) ] <.^ ^ ^ #.5.5.5.u.] +.b v x 2 2 ; y W W r y g p p s w 5 5 4 5 a m.^ <.4.~ ~ N.N.&.N.f.m x v m ; ",
"Y f 5 4 2 r v d = t x x x b S c ^ ^ ^ 4.4.N.5.5.i.( h x n y 2 2 ; l e.e.6.M.l.b.A.H n g 4 < 5 8 2.<.~ #.~ N.5.5.#.#.+.&.k k A 4 ",
"f w 4 4 1 r A k - 7 d u d h v x c ^ ^ 4.4.4.j.u.i.+.v g g r 2 0 * e ,.3.>.>.W ;.l.H k t < 2 k x j.N.5.5.#.5.N.5.p.&._ I k V H 5 ",
"6 4 3 5 1 8 v f = , 2 < 2 r g n x m ^ 3.<.>.3.l. .I x a 7 2 1 2 ; i 4.j.2.f.] 3.l.) m a 7 d 9.A.#.] #.#.#.5.,.2.&.( k v g V V 2 ",
"6 4 5 5 4 8 V v k r 2 2 5 5 d g l x W -.! m P J %.H f r 0 2 9 w i c *.^ ! ,.] 3.J b c t ; t _ { 2.2.5.j.5.5.) ^ o.S k v M V f 3 ",
"4 3 4 6 3 5 v z D.v p 4 4 4 4 5 l l n l V k k k A d 8 5 q 4 4 w 9.#.b.i.j.b.2.i.x b D d 2 a H A e.3.f.2.-.m c x x v z l k f 5 o ",
"6 4 4 6 1 p I T F f 4 3 4 5 4 4 d s s s d f f f f 6 3 4 q 3 4 w r.+.#.+.,.9.b b h h v a , 0 x l P m P -.! m x x l n l F V p 4 o ",
"q 6 4 q 5 f E E 5 4 3 3 4 6 6 p 4 9 5 5 4 4 5 4 6 6 4 6 6 4 6 p D.9.A.k.A.r.D n S A H g r p G G x x v v n n n x l n x n F f 0 > ",
"@ o + : o > f f o # : : : . : @ @ @ & # # o @ @ + : : : @ . : > f t h d a a 2 2 5 2 5 , o # 1 0 0 0 2 ; ; 0 ; 0 ; 0 1 1 0 > @   "
};
