/* XPM */
static char *_d1c5ab345b54c969a7b39536bcf03c3ulp2oteWFimswHK0[] = {
/* columns rows colors chars-per-pixel */
"64 64 245 2 ",
"   c #0D2E3C",
".  c #072B3B",
"X  c #132D3C",
"o  c #1B2E3B",
"O  c #0D343E",
"+  c #14333D",
"@  c #1B323D",
"#  c #163338",
"$  c #21333D",
"%  c #2C3B3D",
"&  c #28393B",
"*  c #3B3B34",
"=  c #33373D",
"-  c #343C3C",
";  c #3B3B3B",
":  c #363A35",
">  c #3D3B2C",
",  c #43382D",
"<  c #433B34",
"1  c #423A39",
"2  c #432F24",
"3  c #29423C",
"4  c #384139",
"5  c #37432F",
"6  c #0D2E42",
"7  c #0D2E4B",
"8  c #132E43",
"9  c #132E4C",
"0  c #1C2D45",
"q  c #0D3344",
"w  c #093946",
"e  c #06354C",
"r  c #0B354D",
"t  c #04394D",
"y  c #0B394C",
"u  c #053745",
"i  c #143343",
"p  c #1A3443",
"a  c #143944",
"s  c #1B3945",
"d  c #14344A",
"f  c #1A344A",
"g  c #14394C",
"h  c #1C3A4B",
"j  c #122E53",
"k  c #182E53",
"l  c #043553",
"z  c #0B3652",
"x  c #043A53",
"c  c #0B3A53",
"v  c #043B5B",
"b  c #0B3D5B",
"n  c #053659",
"m  c #123451",
"M  c #133C54",
"N  c #173957",
"B  c #0C2F54",
"V  c #223344",
"C  c #263C44",
"Z  c #2E3D45",
"A  c #2C3C44",
"S  c #21354B",
"D  c #2C3D4A",
"F  c #283B48",
"G  c #333C44",
"H  c #3B3C42",
"J  c #333C4A",
"K  c #373848",
"L  c #2B3D54",
"P  c #243E51",
"I  c #333D52",
"U  c #202E48",
"Y  c #043D62",
"T  c #0B3E63",
"R  c #083B68",
"E  c #153D63",
"W  c #423D41",
"Q  c #0D425D",
"!  c #0B4A5D",
"~  c #07425A",
"^  c #13435A",
"/  c #17465B",
"(  c #1E404A",
")  c #2C4145",
"_  c #25404C",
"`  c #2C414B",
"'  c #244147",
"]  c #334144",
"[  c #3B4243",
"{  c #32414B",
"}  c #39424A",
"|  c #254353",
" . c #2A4353",
".. c #234558",
"X. c #304354",
"o. c #044465",
"O. c #0B4465",
"+. c #034B65",
"@. c #0B4964",
"#. c #03466B",
"$. c #0B446A",
"%. c #044A6C",
"&. c #0A4A6C",
"*. c #134563",
"=. c #144968",
"-. c #01536D",
";. c #045266",
":. c #014673",
">. c #0B4372",
",. c #014C73",
"<. c #0A4C73",
"1. c #004D7B",
"2. c #06487A",
"3. c #124C73",
"4. c #025274",
"5. c #095275",
"6. c #01527D",
"7. c #09547B",
"8. c #06587D",
"9. c #11567F",
"0. c #23657F",
"q. c #004E82",
"w. c #015483",
"e. c #095682",
"r. c #005A85",
"t. c #00558A",
"y. c #015A8A",
"u. c #005A92",
"i. c #1C678A",
"p. c #0A6A9B",
"a. c #136B94",
"s. c #1B6B93",
"d. c #146C9C",
"f. c #1A6D9C",
"g. c #196795",
"h. c #0D729B",
"j. c #14729D",
"k. c #1A729D",
"l. c #197196",
"z. c #086088",
"x. c #26668A",
"c. c #246C95",
"v. c #256C96",
"b. c #22729C",
"n. c #247296",
"m. c #306F8E",
"M. c #0C6EA4",
"N. c #0E6EA9",
"B. c #146DA1",
"V. c #1A6DA6",
"C. c #0C73A4",
"Z. c #0C75AC",
"A. c #0E7AAD",
"S. c #0675A8",
"D. c #1473A4",
"F. c #1B74A4",
"G. c #147AA5",
"H. c #1C7AA5",
"J. c #1375AB",
"K. c #1B75AB",
"L. c #137AAD",
"P. c #1B7AAB",
"I. c #0675B3",
"U. c #0B75B3",
"Y. c #057AB3",
"T. c #0D7AB4",
"R. c #0D76BA",
"E. c #0C7BBB",
"W. c #0576BC",
"Q. c #1375B2",
"!. c #1A75B2",
"~. c #137CB4",
"^. c #1A7CB3",
"/. c #137CBB",
"(. c #1A7DBB",
"). c #1575BA",
"_. c #2374A3",
"`. c #237CAC",
"'. c #2578A6",
"]. c #237CB7",
"[. c #0D7DC3",
"{. c #0478C1",
"}. c #147CC1",
"|. c #197DC2",
" X c #0B82BC",
".X c #0A80B7",
"XX c #1A81B5",
"oX c #1481BB",
"OX c #1A82BC",
"+X c #1480B3",
"@X c #1382AD",
"#X c #2581BC",
"$X c #4C91B2",
"%X c #0D82C8",
"&X c #1482C3",
"*X c #1984C2",
"=X c #1787C6",
"-X c #2B97CD",
";X c #3C9DCD",
":X c #3894CA",
">X c #2E9AD5",
",X c #2E96D9",
"<X c #2C9BDB",
"1X c #2997D5",
"2X c #3495D3",
"3X c #3B95D3",
"4X c #339CD5",
"5X c #3C9BD4",
"6X c #349CDC",
"7X c #3B9BDA",
"8X c #3595DA",
"9X c #3B8EC4",
"0X c #2CA1DD",
"qX c #26A1DD",
"wX c #34A2DC",
"eX c #3BA2DD",
"rX c #39A3D8",
"tX c #2C9CE3",
"yX c #2D9EEA",
"uX c #279CE6",
"iX c #339DE4",
"pX c #3A9DE3",
"aX c #349EEB",
"sX c #3A9EEC",
"dX c #309FF0",
"fX c #2EA2E2",
"gX c #2DA1EC",
"hX c #34A2E4",
"jX c #3AA2E4",
"kX c #34A3EB",
"lX c #3AA4EA",
"zX c #3CA9EB",
"xX c #3AABE5",
"cX c #2AA4F2",
"vX c #33A4F3",
"bX c #3AA6F4",
"nX c #439ACE",
"mX c #4897C7",
"MX c #439CD5",
"NX c #439DDA",
"BX c #4A9AD3",
"VX c #5693C2",
"CX c #45A3DA",
"ZX c #4EA1CD",
"AX c #41A7EA",
/* pixels */
"i 0 X p F D J Z Z ` p X p f 6 d r m X X i r l n r i 8 p 9 d r d 9 i d d d 9 8 0 D Z Z Z J D V X 9 9 q O w z B j z r ~ O O d d q ",
"p @ o $ A G G % G G & o V p X f d h o o p f e z a i @ o i f 9 p p i p d p p $ $ G G G G J A $ p 0 p # # O r k k f + O O + p f i ",
"A - G - - 4 ; ; * - - % % G A D A G * * - ` |  .Z A - - Z D F A Z ) A ) Z A G - = ; : ; ; ; - ] J G : : % ) I I Z A 3 3 Z G D A ",
"A A ) - - - - ; - - 4 ] ) ` ` ` G G , < ; ] F P ) ] - - ] D ` ) A A A ) Z A A G = - ; : G - ) } H [ * 5 - Z K K G G 3 3 G G Z D ",
"i i i i @ # @ # @ # @ i i q q 6  .G * * - A h q p # o @ @ i a i a + a + a i i @ @ $ @ # @ + X i D A : * 3 A S U @ # # # p 0 p i ",
"x t z r r y y y r e e l b ~ ~ b ..F ; [ ) P M z r d d d y z z z e e t x l t x r e r q r Q Q b c ..` G - ) _ S k d g w y d m z z ",
",.:.%.,.,.&.&.&.<.<.:.7.g.b.f.v.z f F ) p g O.$.&.O.=.@.&.,.&.&.%.%.%.,.,.,.,.&.<.&.&.5.i.c.s.v.=...F A h M b $.=.=.@.+.&.>.>.&.",
"w.w.1.w.6.w.6.1.1.6.1.w.V.`.J._.Y g ` F a z &.,.<.<.,.<.1.1.2.1.6.6.6.w.1.6.w.q.6.1.2.w.d.P.^.'.<.=.| P g z $.3.<.&.-.4.2.1.1.1.",
"B.F.d.d.'.F.d._.F.f.t.w.J.J.J.V.b 8 ` A p r $.:.%.5.%.,.6.:.4.6.s.l.k.k.D.F.F.f._.k.1.1.F.P.L.F.5.^ ` ` a w O.,.&.#.4.,.1.:.6.1.",
"F.F.P.'.F.F.F.H.P.D.y.t.J.~.(.'.O.X ] A @ a O.&.,.1.:.,.6.w.:.,.k.XXj.j.P.P.d.H.F.F.y.t.G.Z.Q.L.4.Q ` D p e @.&.%.,.4.,.r.6.6.r.",
"w.w.B.F.w.r.D.G.K.L.D.M.~.~.-X:Xb X { - @ a O.,.,.%.1.6.a.'.b.'.k.G.r.w.K.C.w.t.H.K.d.p.^.T.XXC.4.! ` G @ w ! %.%.4.%.4.k.k.d.j.",
"w.t.G.L.t.t.D.P.J.^.XXT.~.+X7XCXO.8 ] % @ q O.,.:.:.r.r.M.`.d.k.G.K.r.w.L.J.y.t.J.G.^.^.~.Z.=XA.8.! ` J a w +.,.%.4.6.r.D.F.XXP.",
"Z.Z.!.^.Z.Z.L.~.~.Z.Z.I.E.%X0X5X$.6 ` Z p e &.1.w.t.B.J.+XL.r.w.D.~.Z.Z.~.T.Z.~.J.^.4X4XoXI.<XqX8.+. .J p u +.4.,.6.j.M.y.t.N.L.",
"L.^.L.A.+XL.L.T.T.I.oX XY.E.0X5X#.q ` Z p e %.1.6.r.C.Z.~.A.r.t.S.Z.oX~.T.T./.Q.Q.(.4X2X&XE.hXxXr.;.L I p e +.4.:.1.K.K.u.u.Z.J.",
"C.J.L.L.L.Z.L.^.Z./.4X>X/.Y.wXCXO.6 ` A @ w &.1.d.K.^.^.~.!.D.D.P.A.Z.T.T.~.~.Z.L.N.^.(.U.U.<X>Xr.&.L K o r +.,.1.1.V.H.J.N.].L.",
"L.D.G.P.D.L.L.Z.T.XX4XwX=XT.wX;X$.i ] G p w &.1.k.P.D.C.L.J.F.H.J.L.L.Z.T.~.Q./.(.Z.~.^.U.~.hXeXr.&.L K p q +.4.,.e.B.H.!.J.K.G.",
"D.L.L.C.L.Z.J.~.Z.T.4XeX~.Y.wXnXO.8 J G p z $.2.l.H.w.q.Q.!.V.!.L.A.L.T.Z.Z.5XwX7X6X/.U././.<XCXr.&. .J i c &.,.l.k.G.K.K.L.~.A.",
"^.C.L.L.^.L.~.~.~.oX4X4XoXR.jXMXO.6 J G p y =.2.k._.q.q.~.~.J.L.L.T.XX!.~.oX>XrX6X-X|./.R.R.iX4Xe.@.` D d z o.4.l.k.P.^.K.K.Z.Z.",
"Z.S.!.Z.Z.~.>XwXU.R.&X}.R.E.<XMXO.q ) A a t $.2.k.j.6.6.S.~.L.~.^.S.S.T.6XrX=X/.&X=X,XtX&XR.lX7Xe.*._ G p z O.-.-.4.6.t.d.P.^.L.",
"~.A.+XT./.OX6XxX=X/.R.I.=X=XtX5Xo.q ) ) a t &.1.j.h.r.r.S.T.A.L.A.Z.oX~.4X4XR.U.I./.1XiX&XE.iXeXe.*.{ G p z @.%.4.%.1.u.B.P.!.L.",
"L.L.A.L.5X7X6X4XjX,X|.}.,XiXlXNXo.O ) A a t &.1.k.@Xj.h.A..XA.Z.L.C.L.S.XXXXZ.~.~.U./.Q.T./.2X7Xe.=.` J f z +.,.%.r.N.!.!.K.U.T.",
"N.Z.^.OXwXrXeXjXiX,X|.}.aXlXzXNXO.+ { A a e &.1.a.h.H.G.A..XL.L.!.A.^.Z.~.L.~.~.~.Q.(.T././.,XCXe.*.` J f n &.,.,.y.C.!.!.Q.T./.",
"E.oX<X1X&X&X<XlX%X[.{.{.yXyXvXpXO.8 J G p r &.2.6.r.F.G.C.+XA.L.Z.oXwXrXoXY.<X<XT.E.<X<X}.E.iXeXe.*.` J d n &.1.l.C.J.Q.!.!.Q.R.",
"T.Y.hXfXE.E.hXfX[.[.{.%XdXvXvXNXO.0 J G f z :.2.1.6.D.L.A.+X!.T.T.T.>XwXoXR.xX<X&XW.hXkX[.[.hX4X8.! _ G f z &.,.l.D.^.!.J.L.T.T.",
">XwXoXS.oXT.E.oXI.}.uXkXkXkXvX7XT 0 D J f N :.1.B.`.M.L.+XS.(.!.4XrXOX~.wX7XoX~.,XjX/./.<X6XjX5X8./ ] % p e &.-.4.,.J.`.M.K.^.T.",
"-XrXOXT.oXT.I.E.E.=X1XkXiXfXkX5X$.f J { 8 l 2.w.B.F.P.L.oX+XZ.Z.>X4XOX~.4X4X*X(.6X6X|./.,XjXjXCX8.~ X.] f t +.-.4.r.C.L.K.^.L.~.",
"/.~.Z.~.4X4X&X/.<X<XhXlXjXkXlXNXO.. _ _ f c s.k.w.6.S.@X-XrXXX~.~.oXU.I.(.oXI.I.U.=X<XiXzXxX6X4Xz.~ | ' r v s.H.h.S.A.oX7X4XT.I.",
"/.~./.oX4XjX&XR.jXiXhXhXtXtXfX3X@.  ` ) a x n.@Xy.r.S.@X>XwX~.Z.R./.}.E.}.&X[.&XW.&XkXkXiXkXtXiXy.~ .. .z Y s.H.@XL.I./.6X7X=XE.",
"6XjXjX6XjXzX,XiXlXhXkXlXkXlXkXCX=.  ) % s r s._.j.j.@X@XG.@XC.L.<XyXgXiXgXgXgXgXvXuXvXgXcXbXvXkXy.+. ._ M v s.'.D.K.U.).!.].2X6X",
":X3XMX3XMXNX7XNX3X:X3X3X2X3X3XmXM # 3 % C M i.s.b._.k.j.F.F.H.P.6X6XiXiX6XiX6XiXpX,XiXkXaXiXtX:X8./ G % S N x.n.n.k.F.K.f._.9XnX",
"T R Y Y R Y Y n $.Y o.o.o.Y o.n  .{ [ - G P 3.7.<.<.:.,.w.q.2.:.2.e.e.1.e.6.1.w.e.w.q.e.w.1.w.9./ ) < , W F ( t x ~ n Y v v =.o.",
"8 h 8 f i 6 h f d 6 d d 8 d d i F ] * * H I *.O.*.*.=.O.=.3.$.3.^ *.*.^ =.*.*.=.*.=.b *.=.T *.^ ( [ < 2 W 3 @ #   a 8 m h 6 r q ",
"Z J D J J J J { J G J G K J D } A H ; ; H J P  .G ] - - J L L L  .` ' ' ` ` ' ` P D D  .J  . .{ Z ] 1 1 H G : 5 5 : K K D A ` P ",
"D Z J ] J J G ] G G J J J J G G F A = : G D L X.: * , < 4 J D D A ) A ) _ ) A ` J G G G G G Z Z C & G G J ` 3 5 > > W W K A Z D ",
"i X i a i i i + p p i i i i i p p s $ $ s h g d Z - > * G Z S p p h p i a a q i p p @ 0 p f f i g + p i q h 3 4 > 1 K K C @ p f ",
"c e y c t w c r c c e t y e c z r e q i e l x c ' - ; ; A h g m r d z r z z y M r z m M z z c c x e ^ b x Q ( & - H J P g w r z ",
"@.@.@.@.o.O.@.+.o.&.o.&.&.&.&.o.<.@.*.@.%.8.i.m.g @ - G C d Q *.O.@.O.O.@.o.o.o.&.=.$.$.o.o.#.o.#.&.x.n.c.x./ s A J S d ~ ! Q *.",
"%.-.+.%.7.7.%.,.5.8.,.4.1.:.8.1.:.:.5.5.4.r.j.n.z p Z ] i y @.<.<.<.%.,.5.6.4.,.,.1.1.,.1.8.6.6.6.w.k.H.`.'.b . J J k l ! ;.&.3.",
":.5.:.6.c.i.8.2.g.f.1.1.q.q.f.B.w.r.l.k.h.S.^.k.T f D J d l o.-.,.:.:.r.a.k.k.F.w.q.1.t.p.F.D.j.J.C.+XL.3X9X@.g I I j l ;.-.#.,.",
":.5.:.6._.b.w.q._.V.t.q.q.t.V.K.t.y.j.XX.X.XoXK.v 8 D J d b %.1.1.1.1.r.p.H.F.H.t.q.1.y.D.^.+XA.~.I.T.Y.wXMX&.q K L d x ;.-.#.1.",
"1.1.f._.:.w.B.B.w.t.M.K.K.V.!.K.7X3XK.Z.qXfXfX;X$.8 I K m n &.,.1.1.d.H.w.w.y.q.D.D.J.L.M.A.rX>XE.S. X.X1XCX#.q I D N l +.;.,.1.",
"1.6.l.l.r.z.D.'.y.z.J.K.L.Q.Q.~.7X2XOXXXqXqXfX5XE 8 K J f z +.1.1.r.F.j.r.w.r.y.J.^.!.~.OX*X-XwX=XY. X.X1XCX&.6 K K S z ;.;.4.2.",
"h.j.H.G.j.p.r.w.C.p.C.+X4XrX~.S.(.).Q.I.%X%XfXNX$.0 J G f z &.,.g.k.F.D.G.h.p.D.D.L.M.Z.4X4X/.oXS.W.0X0XlX5X+.q J = U r +.;.1.:.",
"G.G.G.G.@XL.u.w.~.L.T.T.4XwXoXoXE.T.OX/.[.%XtXNX$.8 G G p r &.,.s.F.H.H.P.P.L.^.^.!.U.!.wXjXT.Y.&XoX<X0XjXMX&.6 Z G U q ! +.w.w.",
"C.C.L.L.C.A.A.A.Z.Y.A.+XwXwXY.I.T.E.6X8XyXyXaXMX$.8 J A i z @.1.1.r.j.K.C.L.-XrX/.L.!.I.).}.I.E.<X1XxXjXlX3X&.u Z G S 9 @.4.a.J.",
"A.Z.XX~.~.XX~.Y./.oXI.E.hX6X&XE.E./.6XpXvXvXbXBX$.  ] A a y $.:.q.t.M.P.C.XX4XeX(./.|.}.R.E.[.&XqXhXzXhXAX3X+.t C G U d @.4.D.(.",
"Z.Q.U.^.2X6X/.U.2XiX}.I././.1XzXfX<XjXiXdXvXsXNX$.q ) ' a x &.2.B.J.J.Z.U.~.~./.iXiXpXpXkXiXkXtXzXtX}.R.pXNX%.u ' } U k O.,.B./.",
"Z.OXQ.).pXjX/.(.iXpX).R.}.[.6XlXlX<XzXaXvXvXpXMXO.q ` A a x &.4.B.(.~.Z.oXT.I.(.,XzXiXiXlXyXkXvXkXtX}.).jX5X%.t h ` 9 m &.1.J.R.",
"A.^.Z.(.tXlXtXwXwXwXiXhXsXiXjXjXpXpXlXkXcXvXsXBX=.0 K L 6 c i.k.M.XX-XrXwX<XtXiXgXkXkXhXkXkXdXdXvXaXjX2XCXZXo.t / | 7 z x.'.B.!.",
"a.j.B.].3XNX5XrX;X;X5X7X7XMXnXnXnXnX7XiXiX6XMXVXE U K J p / 0.n.'.#X:X;X;X;X7XpX7X5XrX4X4X5X7XpX8X7XCXnXZX$X*.g h | i N x.m.s.F.",
"~ n Y R >.>.$.o.o.O.$.>.>.>.$.R R O.#.:.:.:.T N L G = H A s g b n Y O.O.@.&.>.>.>.$.O.O.O.$.>.2.2.2.:.Y ~ / h A ] } G D ..M ~ ~ ",
"+ i f k 9 9 f 8 q i 7 j j 9 7 i q q 7 z z 7 f o = ; * ; [ A $ 8 0 9 i i q 6 7 9 9 9 8 i i i j B B l r q q @ A H ; ; ; = $ 8 u e ",
"% A J I K K H ; - G K L I I D D ) D ` D { J { 4 - ; : : [ ] G J J G G G ] ` X.J K K : ; ; [ J K L L D  .` A [ : 1 , 1 W G J  . .",
"G ] J J K H 1 1 1 ; A G D K J G A ) G - G G - 4 ) 4 3 & % A A G G % - % - ) J G H : < < < ; G J } V C C G A } H ; ; 1 H = Z ` _ ",
"# @ a i J H * * - & $ p p s p i i p p @ @ $ # # + O a g h h f p s a # + O a i i A : * > * - C @ p X p i f + X o 0 o $ @ p d g g ",
"u c n r ..J : ; ] P g r r r r l z c d r a w O ~ ~ t v x l x c z w w w t x t x c ( ) - : 3 C a e d q M q M e e M m m z r c c n v ",
":.o.v.x.c p ] ] # g ~ &.+.O.&.<.R q.R <.o.%.0.n.4.:.:.2.c.v.&.+.+.%.o.%.l.n.c.x.^ O ) ) @ O *.@.O.! ! &.,.Y 7.o.x.x.#.#.%.,.c.c.",
"1.q.`._.v 6 & & a t #.5.%.,.e.q.q.q.q.q.8.r.h.@Xr.q.2.t.V.F.y.%.4.6.6.w.B.D.P.'.Y e ' C s w &.,.;.+.4.-.1.1.w.w.F.P.r.6.w.6.d.`.",
"B.V.3X9X3.h H } f z ,.5.:.2.B.V.BX3X^.S.S.h.@XS.N.Q.N.!.K.K.:X-XP.D.G.N.!.(.2XmXo.z ` D s z <.1.4.-.l.j.F.D.M.S.Z.L.C.C.L.L.C.P.",
"].].pX:Xo.X = K 8 l #.:.1.t.V.].pX8X}.I. X X.X.X/./.).(.Q./.rXrX+XZ.#X).R.}.8XBX&.z D G S r <.1.4.6.j.L.^././.oX/.Y.oX~.~.~.U.Q.",
"8X8XzX7X$.i H W h b %.6._._.K.).!.R.U.[.<X0X%XE.R./.8X8X(.R.E..XT.Z.7XpXaXsXsXBX#.7 J K V 7 :.1.D.j.L.Z.U.).,X6X&X.X0X0XT.T./.Q.",
"pXpXkX8Xo.6 ; ; 8 v :.6.F.D.!.|././.[.=X<XyX%XR.R.}.AXjX}.E.W. XY.Z.pXbXsXsXsXMX#.d J K V j 7.r.C.L.~.~.}.[.iXyX%XW.hXhX(.}.}.I.",
"hXgXcX0X#.q ; H f o.l.h.G.L.,XkXjX<XiXiXgXbXyXiXlX<XiXhXfXkXvXgX X.XhXiXyXvXiX5X#.y J - V m i.M.Z.+X>XjXlXaXbXkXkXuXkXkXtXaXsXpX",
"uXgXcX0X+.q G = r n k.@XG.C.hXtXhX4XlXaXyXvXaXkXiXhXtXlXkXgXvXuXY.Y.<XyXdXvXyXrX+.e ] = 0 M s.XXA.E.6XtXaXaXdXkXgXvXkXiXaXaXaXsX"
};
